<?xml version="1.0" encoding="UTF-8"?>
<!--Generator: Apple Native CoreSVG 149-->
<!DOCTYPE svg
PUBLIC "-//W3C//DTD SVG 1.1//EN"
       "http://www.w3.org/Graphics/SVG/1.1/DTD/svg11.dtd">
<svg version="1.1" xmlns="http://www.w3.org/2000/svg" xmlns:xlink="http://www.w3.org/1999/xlink" width="3300" height="2200">
 <!--glyph: "uni1001C3.medium", point size: 100.000000, font version: "Version 16.0d12e3", template writer version: "8"-->
 <g id="Notes">
  <rect height="2200" id="artboard" style="fill:white;opacity:1" width="3300" x="0" y="0"/>
  <line id="" style="fill:none;stroke:black;opacity:1;stroke-width:0.5;" x1="263" x2="3036" y1="292" y2="292"/>
  <text style="stroke:none;fill:black;font-family:-apple-system,&quot;SF Pro Display&quot;,&quot;SF Pro Text&quot;,Helvetica,sans-serif;font-weight:bold;" transform="matrix(1 0 0 1 263 322)">Weight/Scale Variations</text>
  <text style="stroke:none;fill:black;font-family:-apple-system,&quot;SF Pro Display&quot;,&quot;SF Pro Text&quot;,Helvetica,sans-serif;text-anchor:middle;" transform="matrix(1 0 0 1 559.711 322)">Ultralight</text>
  <text style="stroke:none;fill:black;font-family:-apple-system,&quot;SF Pro Display&quot;,&quot;SF Pro Text&quot;,Helvetica,sans-serif;text-anchor:middle;" transform="matrix(1 0 0 1 856.422 322)">Thin</text>
  <text style="stroke:none;fill:black;font-family:-apple-system,&quot;SF Pro Display&quot;,&quot;SF Pro Text&quot;,Helvetica,sans-serif;text-anchor:middle;" transform="matrix(1 0 0 1 1153.13 322)">Light</text>
  <text style="stroke:none;fill:black;font-family:-apple-system,&quot;SF Pro Display&quot;,&quot;SF Pro Text&quot;,Helvetica,sans-serif;text-anchor:middle;" transform="matrix(1 0 0 1 1449.84 322)">Regular</text>
  <text style="stroke:none;fill:black;font-family:-apple-system,&quot;SF Pro Display&quot;,&quot;SF Pro Text&quot;,Helvetica,sans-serif;text-anchor:middle;" transform="matrix(1 0 0 1 1746.56 322)">Medium</text>
  <text style="stroke:none;fill:black;font-family:-apple-system,&quot;SF Pro Display&quot;,&quot;SF Pro Text&quot;,Helvetica,sans-serif;text-anchor:middle;" transform="matrix(1 0 0 1 2043.27 322)">Semibold</text>
  <text style="stroke:none;fill:black;font-family:-apple-system,&quot;SF Pro Display&quot;,&quot;SF Pro Text&quot;,Helvetica,sans-serif;text-anchor:middle;" transform="matrix(1 0 0 1 2339.98 322)">Bold</text>
  <text style="stroke:none;fill:black;font-family:-apple-system,&quot;SF Pro Display&quot;,&quot;SF Pro Text&quot;,Helvetica,sans-serif;text-anchor:middle;" transform="matrix(1 0 0 1 2636.69 322)">Heavy</text>
  <text style="stroke:none;fill:black;font-family:-apple-system,&quot;SF Pro Display&quot;,&quot;SF Pro Text&quot;,Helvetica,sans-serif;text-anchor:middle;" transform="matrix(1 0 0 1 2933.4 322)">Black</text>
  <line id="" style="fill:none;stroke:black;opacity:1;stroke-width:0.5;" x1="263" x2="3036" y1="1903" y2="1903"/>
  <g id="" transform="matrix(1 0 0 1 263 1933)">
   <path d="M9.24805 0.830078C13.5547 0.830078 17.1387-2.74414 17.1387-7.05078C17.1387-11.3574 13.5449-14.9316 9.23828-14.9316C4.94141-14.9316 1.36719-11.3574 1.36719-7.05078C1.36719-2.74414 4.95117 0.830078 9.24805 0.830078ZM9.24805-0.654297C5.70312-0.654297 2.87109-3.49609 2.87109-7.05078C2.87109-10.6055 5.69336-13.4473 9.23828-13.4473C12.793-13.4473 15.6348-10.6055 15.6445-7.05078C15.6543-3.49609 12.8027-0.654297 9.24805-0.654297ZM9.22852-3.62305C9.69727-3.62305 9.9707-3.93555 9.9707-4.45312L9.9707-6.31836L12.002-6.31836C12.5-6.31836 12.832-6.57227 12.832-7.04102C12.832-7.51953 12.5195-7.7832 12.002-7.7832L9.9707-7.7832L9.9707-9.81445C9.9707-10.332 9.69727-10.6543 9.22852-10.6543C8.75977-10.6543 8.50586-10.3125 8.50586-9.81445L8.50586-7.7832L6.49414-7.7832C5.97656-7.7832 5.64453-7.51953 5.64453-7.04102C5.64453-6.57227 5.99609-6.31836 6.49414-6.31836L8.50586-6.31836L8.50586-4.45312C8.50586-3.95508 8.75977-3.62305 9.22852-3.62305Z"/>
  </g>
  <g id="" transform="matrix(1 0 0 1 281.506 1933)">
   <path d="M11.709 2.91016C17.1582 2.91016 21.6699-1.61133 21.6699-7.05078C21.6699-12.5 17.1484-17.0117 11.6992-17.0117C6.25977-17.0117 1.74805-12.5 1.74805-7.05078C1.74805-1.61133 6.26953 2.91016 11.709 2.91016ZM11.709 1.25C7.09961 1.25 3.41797-2.44141 3.41797-7.05078C3.41797-11.6602 7.08984-15.3516 11.6992-15.3516C16.3086-15.3516 20-11.6602 20.0098-7.05078C20.0195-2.44141 16.3184 1.25 11.709 1.25ZM11.6797-2.66602C12.207-2.66602 12.5098-3.01758 12.5098-3.59375L12.5098-6.23047L15.3223-6.23047C15.8691-6.23047 16.25-6.51367 16.25-7.03125C16.25-7.55859 15.8887-7.86133 15.3223-7.86133L12.5098-7.86133L12.5098-10.6836C12.5098-11.25 12.207-11.6113 11.6797-11.6113C11.1621-11.6113 10.8789-11.2305 10.8789-10.6836L10.8789-7.86133L8.07617-7.86133C7.50977-7.86133 7.13867-7.55859 7.13867-7.03125C7.13867-6.51367 7.5293-6.23047 8.07617-6.23047L10.8789-6.23047L10.8789-3.59375C10.8789-3.03711 11.1621-2.66602 11.6797-2.66602Z"/>
  </g>
  <g id="" transform="matrix(1 0 0 1 304.924 1933)">
   <path d="M14.9707 5.66406C21.9336 5.66406 27.6953-0.0976562 27.6953-7.05078C27.6953-14.0137 21.9238-19.7754 14.9609-19.7754C8.00781-19.7754 2.25586-14.0137 2.25586-7.05078C2.25586-0.0976562 8.01758 5.66406 14.9707 5.66406ZM14.9707 3.84766C8.93555 3.84766 4.08203-1.01562 4.08203-7.05078C4.08203-13.0957 8.92578-17.9492 14.9609-17.9492C21.0059-17.9492 25.8594-13.0957 25.8691-7.05078C25.8789-1.01562 21.0156 3.84766 14.9707 3.84766ZM14.9414-1.38672C15.5176-1.38672 15.8594-1.77734 15.8594-2.38281L15.8594-6.13281L19.7754-6.13281C20.3711-6.13281 20.7812-6.46484 20.7812-7.02148C20.7812-7.59766 20.3906-7.93945 19.7754-7.93945L15.8594-7.93945L15.8594-11.8652C15.8594-12.4805 15.5176-12.8711 14.9414-12.8711C14.375-12.8711 14.0527-12.4609 14.0527-11.8652L14.0527-7.93945L10.1465-7.93945C9.53125-7.93945 9.13086-7.59766 9.13086-7.02148C9.13086-6.46484 9.55078-6.13281 10.1465-6.13281L14.0527-6.13281L14.0527-2.38281C14.0527-1.79688 14.375-1.38672 14.9414-1.38672Z"/>
  </g>
  <text style="stroke:none;fill:black;font-family:-apple-system,&quot;SF Pro Display&quot;,&quot;SF Pro Text&quot;,Helvetica,sans-serif;font-weight:bold;" transform="matrix(1 0 0 1 263 1953)">Design Variations</text>
  <text style="stroke:none;fill:black;font-family:-apple-system,&quot;SF Pro Display&quot;,&quot;SF Pro Text&quot;,Helvetica,sans-serif;" transform="matrix(1 0 0 1 263 1971)">Symbols are supported in up to nine weights and three scales.</text>
  <text style="stroke:none;fill:black;font-family:-apple-system,&quot;SF Pro Display&quot;,&quot;SF Pro Text&quot;,Helvetica,sans-serif;" transform="matrix(1 0 0 1 263 1989)">For optimal layout with text and other symbols, vertically align</text>
  <text style="stroke:none;fill:black;font-family:-apple-system,&quot;SF Pro Display&quot;,&quot;SF Pro Text&quot;,Helvetica,sans-serif;" transform="matrix(1 0 0 1 263 2007)">symbols with the adjacent text.</text>
  <line id="" style="fill:none;stroke:#00AEEF;stroke-width:0.5;opacity:1.0;" x1="776" x2="776" y1="1919" y2="1933"/>
  <g id="" transform="matrix(1 0 0 1 776 1933)">
   <path d="M3.31055 0.126953C3.82812 0.126953 4.08203-0.0683594 4.26758-0.605469L5.52734-4.0625L11.2891-4.0625L12.5488-0.605469C12.7344-0.0683594 12.9883 0.126953 13.4961 0.126953C14.0137 0.126953 14.3457-0.185547 14.3457-0.673828C14.3457-0.839844 14.3164-0.986328 14.2383-1.20117L9.6582-13.3887C9.43359-13.9941 9.0332-14.2871 8.4082-14.2871C7.80273-14.2871 7.39258-13.9941 7.17773-13.3984L2.59766-1.19141C2.51953-0.976562 2.49023-0.830078 2.49023-0.664062C2.49023-0.175781 2.80273 0.126953 3.31055 0.126953ZM6.00586-5.53711L8.37891-12.1094L8.42773-12.1094L10.8008-5.53711Z"/>
  </g>
  <line id="" style="fill:none;stroke:#00AEEF;stroke-width:0.5;opacity:1.0;" x1="792.836" x2="792.836" y1="1919" y2="1933"/>
  <text style="stroke:none;fill:black;font-family:-apple-system,&quot;SF Pro Display&quot;,&quot;SF Pro Text&quot;,Helvetica,sans-serif;font-weight:bold;" transform="matrix(1 0 0 1 776 1953)">Margins</text>
  <text style="stroke:none;fill:black;font-family:-apple-system,&quot;SF Pro Display&quot;,&quot;SF Pro Text&quot;,Helvetica,sans-serif;" transform="matrix(1 0 0 1 776 1971)">Leading and trailing margins on the left and right side of each symbol</text>
  <text style="stroke:none;fill:black;font-family:-apple-system,&quot;SF Pro Display&quot;,&quot;SF Pro Text&quot;,Helvetica,sans-serif;" transform="matrix(1 0 0 1 776 1989)">can be adjusted by modifying the x-location of the margin guidelines.</text>
  <text style="stroke:none;fill:black;font-family:-apple-system,&quot;SF Pro Display&quot;,&quot;SF Pro Text&quot;,Helvetica,sans-serif;" transform="matrix(1 0 0 1 776 2007)">Modifications are automatically applied proportionally to all</text>
  <text style="stroke:none;fill:black;font-family:-apple-system,&quot;SF Pro Display&quot;,&quot;SF Pro Text&quot;,Helvetica,sans-serif;" transform="matrix(1 0 0 1 776 2025)">scales and weights.</text>
  <g id="" transform="matrix(1 0 0 1 1289 1933)">
   <path d="M2.8418 1.86523L4.54102 3.57422C5.40039 4.44336 6.38672 4.38477 7.31445 3.35938L17.4902-7.85156C17.7539-7.76367 18.0273-7.7832 18.3398-7.8418L19.4043-8.03711L20.0684-7.36328L20.0293-6.80664C19.9902-6.30859 20.1172-5.92773 20.6055-5.44922L21.3672-4.70703C21.8457-4.22852 22.4609-4.19922 22.9297-4.66797L25.8398-7.58789C26.3086-8.05664 26.2891-8.65234 25.8105-9.13086L25.0391-9.89258C24.5605-10.3711 24.1895-10.5273 23.7109-10.4883L23.1348-10.4395L22.4902-11.0742L22.7344-12.1973C22.8613-12.7637 22.7051-13.2031 22.1191-13.7891L19.9219-15.9766C16.582-19.2969 12.1484-19.2188 9.25781-16.3281C8.83789-15.918 8.80859-15.3418 9.04297-14.9512C9.27734-14.5898 9.73633-14.3555 10.3809-14.5215C11.8457-14.8633 13.3691-14.9219 14.7949-13.9844L14.209-12.5293C14.0137-12.0508 13.9844-11.6504 14.1113-11.2891L3.04688-0.898438C2.06055 0.0195312 1.98242 0.996094 2.8418 1.86523ZM10.752-15.957C13.1836-17.7344 16.4746-17.4316 18.7012-15.2051L21.1328-12.793C21.3672-12.5586 21.4062-12.373 21.3379-12.0312L21.0156-10.5469L22.5195-9.0625L23.5059-9.12109C23.7598-9.13086 23.8379-9.11133 24.0332-8.91602L24.6094-8.33984L22.168-5.89844L21.5918-6.47461C21.3965-6.66992 21.3672-6.74805 21.377-7.01172L21.4453-7.98828L19.9512-9.47266L18.4277-9.21875C18.1055-9.15039 17.959-9.17969 17.7148-9.41406L15.7129-11.416C15.459-11.6504 15.4297-11.8164 15.5859-12.1875L16.4648-14.2773C14.9023-15.7324 12.8711-16.3574 10.8398-15.7617C10.6836-15.7227 10.625-15.8496 10.752-15.957ZM5.27344 2.30469L4.10156 1.14258C3.63281 0.683594 3.74023 0.341797 4.14062-0.0195312L14.9512-10.1953L16.416-8.71094L6.42578 2.27539C6.07422 2.67578 5.74219 2.77344 5.27344 2.30469Z"/>
  </g>
  <text style="stroke:none;fill:black;font-family:-apple-system,&quot;SF Pro Display&quot;,&quot;SF Pro Text&quot;,Helvetica,sans-serif;font-weight:bold;" transform="matrix(1 0 0 1 1289 1953)">Exporting</text>
  <text style="stroke:none;fill:black;font-family:-apple-system,&quot;SF Pro Display&quot;,&quot;SF Pro Text&quot;,Helvetica,sans-serif;" transform="matrix(1 0 0 1 1289 1971)">Symbols should be outlined when exporting to ensure the</text>
  <text style="stroke:none;fill:black;font-family:-apple-system,&quot;SF Pro Display&quot;,&quot;SF Pro Text&quot;,Helvetica,sans-serif;" transform="matrix(1 0 0 1 1289 1989)">design is preserved when submitting to Xcode.</text>
  <text id="template-version" style="stroke:none;fill:black;font-family:-apple-system,&quot;SF Pro Display&quot;,&quot;SF Pro Text&quot;,Helvetica,sans-serif;text-anchor:end;" transform="matrix(1 0 0 1 3036 1933)">Template v.2.0</text>
  <text style="stroke:none;fill:black;font-family:-apple-system,&quot;SF Pro Display&quot;,&quot;SF Pro Text&quot;,Helvetica,sans-serif;text-anchor:end;" transform="matrix(1 0 0 1 3036 1951)">Requires Xcode 12 or greater</text>
  <text style="stroke:none;fill:black;font-family:-apple-system,&quot;SF Pro Display&quot;,&quot;SF Pro Text&quot;,Helvetica,sans-serif;text-anchor:end;" transform="matrix(1 0 0 1 3036 1969)">Generated from cloud.fill</text>
  <text style="stroke:none;fill:black;font-family:-apple-system,&quot;SF Pro Display&quot;,&quot;SF Pro Text&quot;,Helvetica,sans-serif;text-anchor:end;" transform="matrix(1 0 0 1 3036 1987)">Typeset at 100 points</text>
  <text style="stroke:none;fill:black;font-family:-apple-system,&quot;SF Pro Display&quot;,&quot;SF Pro Text&quot;,Helvetica,sans-serif;" transform="matrix(1 0 0 1 263 726)">Small</text>
  <text style="stroke:none;fill:black;font-family:-apple-system,&quot;SF Pro Display&quot;,&quot;SF Pro Text&quot;,Helvetica,sans-serif;" transform="matrix(1 0 0 1 263 1156)">Medium</text>
  <text style="stroke:none;fill:black;font-family:-apple-system,&quot;SF Pro Display&quot;,&quot;SF Pro Text&quot;,Helvetica,sans-serif;" transform="matrix(1 0 0 1 263 1586)">Large</text>
 </g>
 <g id="Guides">
  <g id="H-reference" style="fill:#27AAE1;stroke:none;" transform="matrix(1 0 0 1 339 696)">
   <path d="M0.976562 0L3.66211 0L12.9883-24.4629L45.752-24.4629L55.127 0L57.7637 0L30.6152-70.459L28.125-70.459ZM29.3457-67.1387L29.4434-67.1387L44.873-26.709L13.8672-26.709Z"/>
  </g>
  <line id="Baseline-S" style="fill:none;stroke:#27AAE1;opacity:1;stroke-width:0.5;" x1="263" x2="3036" y1="696" y2="696"/>
  <line id="Capline-S" style="fill:none;stroke:#27AAE1;opacity:1;stroke-width:0.5;" x1="263" x2="3036" y1="625.541" y2="625.541"/>
  <g id="H-reference" style="fill:#27AAE1;stroke:none;" transform="matrix(1 0 0 1 339 1126)">
   <path d="M0.976562 0L3.66211 0L12.9883-24.4629L45.752-24.4629L55.127 0L57.7637 0L30.6152-70.459L28.125-70.459ZM29.3457-67.1387L29.4434-67.1387L44.873-26.709L13.8672-26.709Z"/>
  </g>
  <line id="Baseline-M" style="fill:none;stroke:#27AAE1;opacity:1;stroke-width:0.5;" x1="263" x2="3036" y1="1126" y2="1126"/>
  <line id="Capline-M" style="fill:none;stroke:#27AAE1;opacity:1;stroke-width:0.5;" x1="263" x2="3036" y1="1055.54" y2="1055.54"/>
  <g id="H-reference" style="fill:#27AAE1;stroke:none;" transform="matrix(1 0 0 1 339 1556)">
   <path d="M0.976562 0L3.66211 0L12.9883-24.4629L45.752-24.4629L55.127 0L57.7637 0L30.6152-70.459L28.125-70.459ZM29.3457-67.1387L29.4434-67.1387L44.873-26.709L13.8672-26.709Z"/>
  </g>
  <line id="Baseline-L" style="fill:none;stroke:#27AAE1;opacity:1;stroke-width:0.5;" x1="263" x2="3036" y1="1556" y2="1556"/>
  <line id="Capline-L" style="fill:none;stroke:#27AAE1;opacity:1;stroke-width:0.5;" x1="263" x2="3036" y1="1485.54" y2="1485.54"/>
  <line id="left-margin" style="fill:none;stroke:#00AEEF;stroke-width:0.5;opacity:1.0;" x1="1385.86" x2="1385.86" y1="1030.79" y2="1150.12"/>
  <line id="right-margin" style="fill:none;stroke:#00AEEF;stroke-width:0.5;opacity:1.0;" x1="1513.83" x2="1513.83" y1="1030.79" y2="1150.12"/>
 </g>
 <g id="Symbols">
  <g id="Black-L" transform="matrix(1 0 0 1 2846.24 1556)">
   <path d="M44.4824 16.5527L123.926 16.5527C146.045 16.5527 163.037-0.244141 163.037-21.9238C163.037-43.9941 145.898-60.791 123.486-60.5957C115.039-77.002 100.195-85.791 80.9082-85.791C56.1523-85.791 35.8398-68.1152 32.5195-43.75C20.0684-39.5508 11.2793-28.8086 11.2793-14.6973C11.2793 3.51562 25.0488 16.5527 44.4824 16.5527Z"/>
  </g>
  <g id="Heavy-L" transform="matrix(1 0 0 1 2550.68 1556)">
   <path d="M43.3594 15.4297L122.559 15.4297C144.141 15.4297 160.742-0.878906 160.742-21.9727C160.742-43.3594 143.848-59.5703 121.729-59.4238C113.379-75.8301 98.584-84.7656 79.6875-84.7656C55.3711-84.7656 35.2539-66.9434 32.3242-42.7734C19.873-38.7695 11.2793-28.1738 11.2793-14.502C11.2793 3.02734 24.5117 15.4297 43.3594 15.4297Z"/>
  </g>
  <g id="Bold-L" transform="matrix(1 0 0 1 2255.29 1556)">
   <path d="M42.0898 14.209L121.045 14.209C141.992 14.209 158.105-1.5625 158.105-21.9727C158.105-42.627 141.553-58.252 119.775-58.1055C111.523-74.5605 96.7773-83.6426 78.3691-83.6426C54.4922-83.6426 34.668-65.625 32.0801-41.6992C19.6777-37.9395 11.2793-27.4902 11.2793-14.2578C11.2793 2.44141 23.9258 14.209 42.0898 14.209Z"/>
  </g>
  <g id="Semibold-L" transform="matrix(1 0 0 1 1959.45 1556)">
   <path d="M41.2109 13.3789L120.02 13.3789C140.527 13.3789 156.348-2.09961 156.348-21.9727C156.348-42.1387 139.99-57.3242 118.457-57.1777C110.205-73.6816 95.5566-82.8125 77.4414-82.8125C53.8574-82.8125 34.2285-64.6973 31.9336-40.918C19.5312-37.3535 11.2793-27.002 11.2793-14.1113C11.2793 2.09961 23.5352 13.3789 41.2109 13.3789Z"/>
  </g>
  <g id="Medium-L" transform="matrix(1 0 0 1 1663.43 1556)">
   <path d="M40.5762 12.7441L119.238 12.7441C139.404 12.7441 154.98-2.44141 154.98-21.9727C154.98-41.7969 138.818-56.6406 117.432-56.4453C109.229-72.998 94.5801-82.2266 76.709-82.2266C53.418-82.2266 33.8867-64.0137 31.8359-40.3809C19.4336-36.8652 11.2793-26.6113 11.2793-14.0137C11.2793 1.80664 23.1934 12.7441 40.5762 12.7441Z"/>
  </g>
  <g id="Regular-L" transform="matrix(1 0 0 1 1367.62 1556)">
   <path d="M39.6973 11.9141L118.164 11.9141C137.939 11.9141 153.174-2.92969 153.174-22.0215C153.174-41.3086 137.256-55.7129 116.113-55.5664C107.959-72.1191 93.3594-81.4453 75.7812-81.4453C52.7832-81.4453 33.4473-63.1348 31.6895-39.5996C19.2871-36.2793 11.2793-26.123 11.2793-13.8672C11.2793 1.41602 22.8027 11.9141 39.6973 11.9141Z"/>
  </g>
  <g id="Light-L" transform="matrix(1 0 0 1 1071.35 1556)">
   <path d="M38.9648 10.8398L117.822 10.8398C137.207 10.8398 152.295-3.75977 152.295-22.4121C152.295-41.2109 136.523-55.3711 115.723-55.1758C107.52-72.168 93.1641-81.4453 75.4395-81.4453C52.832-81.4453 33.7891-63.1348 32.0312-39.5996C19.4336-36.3281 11.2793-26.3184 11.2793-14.209C11.2793 0.585938 22.5098 10.8398 38.9648 10.8398Z"/>
  </g>
  <g id="Thin-L" transform="matrix(1 0 0 1 775.245 1556)">
   <path d="M37.9883 9.32617L117.334 9.32617C136.279 9.32617 151.074-4.83398 151.074-22.9004C151.074-41.1621 135.596-54.8828 115.234-54.6875C106.885-72.2656 92.9199-81.4453 74.9512-81.4453C52.832-81.4453 34.2285-63.1836 32.5195-39.5996C19.5801-36.377 11.2793-26.6113 11.2793-14.6973C11.2793-0.537109 22.168 9.32617 37.9883 9.32617Z"/>
  </g>
  <g id="Ultralight-L" transform="matrix(1 0 0 1 478.852 1556)">
   <path d="M37.5 8.59375L117.09 8.59375C135.791 8.59375 150.439-5.37109 150.439-23.1934C150.439-41.1133 135.156-54.5898 114.99-54.4434C106.592-72.2656 92.7734-81.4453 74.707-81.4453C52.8809-81.4453 34.4727-63.1836 32.8125-39.5996C19.6777-36.4258 11.2793-26.709 11.2793-14.9414C11.2793-1.12305 21.9727 8.59375 37.5 8.59375Z"/>
  </g>
  <g id="Black-M" transform="matrix(1 0 0 1 2864.53 1126)">
   <path d="M35.5469 5.76172L97.7051 5.76172C115.381 5.76172 129.004-7.66602 129.004-25.0977C129.004-42.8711 115.43-56.4453 97.8516-56.2988C91.1621-69.1895 79.6875-75.8301 64.1602-75.8301C44.5801-75.8301 28.7109-62.3047 25.6836-43.1641C15.8691-39.6484 8.74023-31.25 8.74023-19.7754C8.74023-5.0293 20.0195 5.76172 35.5469 5.76172Z"/>
  </g>
  <g id="Heavy-M" transform="matrix(1 0 0 1 2568.96 1126)">
   <path d="M34.5215 4.83398L96.2891 4.83398C113.477 4.83398 126.709-8.1543 126.709-25.0488C126.709-42.1875 113.379-55.2246 96.0449-55.127C89.4531-67.9199 77.9785-74.707 62.9395-74.707C43.75-74.707 27.9785-61.0352 25.3418-42.0898C15.625-38.8184 8.74023-30.4688 8.74023-19.4824C8.74023-5.32227 19.4824 4.83398 34.5215 4.83398Z"/>
  </g>
  <g id="Bold-M" transform="matrix(1 0 0 1 2273.55 1126)">
   <path d="M33.3984 3.85742L94.7266 3.85742C111.328 3.85742 124.121-8.69141 124.121-24.9512C124.121-41.4062 111.084-53.8574 93.9941-53.7598C87.5488-66.4551 76.0742-73.4375 61.5234-73.4375C42.7734-73.4375 27.2461-59.5703 25-40.8691C15.3809-37.8418 8.74023-29.6387 8.74023-19.1406C8.74023-5.66406 18.8965 3.85742 33.3984 3.85742Z"/>
  </g>
  <g id="Semibold-M" transform="matrix(1 0 0 1 1977.71 1126)">
   <path d="M32.5684 3.17383L93.6523 3.17383C109.863 3.17383 122.363-9.08203 122.363-24.8535C122.363-40.8691 109.521-52.9297 92.627-52.832C86.2305-65.4785 74.7559-72.5586 60.5957-72.5586C42.0898-72.5586 26.709-58.5938 24.7559-40.0879C15.1855-37.207 8.74023-29.0527 8.74023-18.8965C8.74023-5.9082 18.5059 3.17383 32.5684 3.17383Z"/>
  </g>
  <g id="Medium-M" transform="matrix(1 0 0 1 1681.69 1126)">
   <path d="M31.9824 2.63672L92.8711 2.63672C108.74 2.63672 120.996-9.375 120.996-24.8047C120.996-40.4785 108.301-52.2461 91.5527-52.0996C85.2539-64.7461 73.7793-71.875 59.8633-71.875C41.6016-71.875 26.2695-57.8125 24.5605-39.4531C15.0391-36.6699 8.74023-28.6133 8.74023-18.7012C8.74023-6.10352 18.2129 2.63672 31.9824 2.63672Z"/>
  </g>
  <g id="Regular-M" transform="matrix(1 0 0 1 1385.86 1126)">
   <path d="M31.2012 1.95312L91.7969 1.95312C107.324 1.95312 119.238-9.76562 119.238-24.7559C119.238-39.9414 106.738-51.3184 90.1855-51.1719C83.9355-63.7695 72.4609-71.0449 58.9355-71.0449C40.918-71.0449 25.7324-56.8359 24.3652-38.623C14.8926-36.0352 8.74023-28.0762 8.74023-18.457C8.74023-6.34766 17.8223 1.95312 31.2012 1.95312Z"/>
  </g>
  <g id="Light-M" transform="matrix(1 0 0 1 1089.56 1126)">
   <path d="M30.5176 0.927734L91.4551 0.927734C106.641 0.927734 118.408-10.4492 118.408-25.0977C118.408-39.8926 106.152-50.9766 89.8438-50.8789C83.5449-63.8184 72.3145-71.0449 58.6426-71.0449C40.918-71.0449 26.0254-56.8359 24.6582-38.623C14.9902-36.084 8.74023-28.2227 8.74023-18.7988C8.74023-7.08008 17.5781 0.927734 30.5176 0.927734Z"/>
  </g>
  <g id="Thin-M" transform="matrix(1 0 0 1 793.385 1126)">
   <path d="M29.6387-0.341797L91.0156-0.341797C105.811-0.341797 117.334-11.4258 117.334-25.5859C117.334-39.8438 105.322-50.5371 89.4043-50.4395C82.959-63.916 72.0703-71.0449 58.2031-71.0449C40.9668-71.0449 26.4648-56.8848 25.0977-38.623C15.1367-36.1328 8.74023-28.4668 8.74023-19.2383C8.74023-8.10547 17.2363-0.341797 29.6387-0.341797Z"/>
  </g>
  <g id="Ultralight-M" transform="matrix(1 0 0 1 496.967 1126)">
   <path d="M29.1992-1.02539L90.8203-1.02539C105.371-1.02539 116.748-11.9141 116.748-25.8301C116.748-39.7949 104.883-50.3418 89.1602-50.1953C82.7148-63.916 71.9238-71.0449 57.959-71.0449C40.9668-71.0449 26.6602-56.8848 25.3418-38.623C15.2344-36.1328 8.74023-28.6133 8.74023-19.4336C8.74023-8.64258 17.0898-1.02539 29.1992-1.02539Z"/>
  </g>
  <g id="Black-S" transform="matrix(1 0 0 1 2879.54 696)">
   <path d="M27.7832-3.17383L76.416-3.17383C90.2344-3.17383 100.879-13.6719 100.879-27.2949C100.879-41.1621 90.2832-51.7578 76.5137-51.6602C71.2891-61.7188 62.3047-66.9434 50.1465-66.9434C34.8633-66.9434 22.4121-56.3477 20.0684-41.3574C12.4023-38.623 6.83594-32.0312 6.83594-23.0957C6.83594-11.5723 15.625-3.17383 27.7832-3.17383Z"/>
  </g>
  <g id="Heavy-S" transform="matrix(1 0 0 1 2583.66 696)">
   <path d="M27.0508-3.75977L75.3906-3.75977C88.8672-3.75977 99.2188-13.9648 99.2188-27.1973C99.2188-40.625 88.7695-50.8789 75.1465-50.7812C70.0195-60.7422 61.0352-66.0645 49.2676-66.0645C34.1797-66.0645 21.8262-55.3711 19.7754-40.5273C12.207-37.9883 6.83594-31.4453 6.83594-22.8027C6.83594-11.7188 15.2344-3.75977 27.0508-3.75977Z"/>
  </g>
  <g id="Bold-S" transform="matrix(1 0 0 1 2287.88 696)">
   <path d="M26.2695-4.39453L74.2188-4.39453C87.3047-4.39453 97.3633-14.3066 97.3633-27.0996C97.3633-40.0391 87.1094-49.8535 73.6328-49.7559C68.6035-59.668 59.5703-65.1367 48.2422-65.1367C33.4473-65.1367 21.1914-54.248 19.4824-39.6484C12.0117-37.2559 6.83594-30.7617 6.83594-22.5098C6.83594-11.9141 14.8438-4.39453 26.2695-4.39453Z"/>
  </g>
  <g id="Semibold-S" transform="matrix(1 0 0 1 1991.83 696)">
   <path d="M25.7324-4.83398L73.4375-4.83398C86.2305-4.83398 96.0449-14.502 96.0449-27.002C96.0449-39.6484 85.9375-49.1699 72.6074-49.0723C67.627-58.8867 58.5938-64.4531 47.5586-64.4531C32.9102-64.4531 20.8008-53.4668 19.2871-39.0137C11.8652-36.7188 6.83594-30.3223 6.83594-22.3145C6.83594-12.0117 14.5508-4.83398 25.7324-4.83398Z"/>
  </g>
  <g id="Medium-S" transform="matrix(1 0 0 1 1695.6 696)">
   <path d="M25.293-5.17578L72.8516-5.17578C85.4492-5.17578 95.0684-14.6973 95.0684-26.9531C95.0684-39.3555 85.0586-48.6816 71.8262-48.584C66.8945-58.3008 57.8613-63.9648 47.0215-63.9648C32.5195-63.9648 20.459-52.9297 19.0918-38.5254C11.7188-36.3281 6.83594-29.9805 6.83594-22.1191C6.83594-12.1094 14.3555-5.17578 25.293-5.17578Z"/>
  </g>
  <g id="Regular-S" transform="matrix(1 0 0 1 1399.53 696)">
   <path d="M24.7559-5.61523L72.0703-5.61523C84.375-5.61523 93.7988-14.8926 93.7988-26.8555C93.7988-38.9648 83.9355-47.998 70.8008-47.9004C65.9668-57.5684 56.8359-63.2812 46.3379-63.2812C32.0312-63.2812 20.0195-52.1484 18.8965-37.8906C11.5723-35.8398 6.83594-29.541 6.83594-21.9238C6.83594-12.207 14.0625-5.61523 24.7559-5.61523Z"/>
  </g>
  <g id="Light-S" transform="matrix(1 0 0 1 1103.18 696)">
   <path d="M24.1699-6.49414L71.7773-6.49414C83.7891-6.49414 93.0664-15.5762 93.0664-27.1484C93.0664-38.916 83.3984-47.7051 70.5078-47.6074C65.5762-57.6172 56.6895-63.2812 46.0449-63.2812C32.0312-63.2812 20.2637-52.1484 19.1895-37.8906C11.6699-35.8887 6.83594-29.6875 6.83594-22.2168C6.83594-12.8906 13.8672-6.49414 24.1699-6.49414Z"/>
  </g>
  <g id="Thin-S" transform="matrix(1 0 0 1 806.935 696)">
   <path d="M23.3887-7.66602L71.3867-7.66602C83.0566-7.66602 92.1387-16.4062 92.1387-27.5879C92.1387-38.8672 82.666-47.3145 70.1172-47.2168C65.0879-57.666 56.4941-63.2812 45.6543-63.2812C32.0801-63.2812 20.6055-52.1973 19.5801-37.8906C11.8164-35.8887 6.83594-29.8828 6.83594-22.6074C6.83594-13.7695 13.5742-7.66602 23.3887-7.66602Z"/>
  </g>
  <g id="Ultralight-S" transform="matrix(1 0 0 1 510.492 696)">
   <path d="M22.998-8.25195L71.1914-8.25195C82.666-8.25195 91.6016-16.8457 91.6016-27.7832C91.6016-38.8184 82.2754-47.1191 69.9219-47.0215C64.8438-57.7148 56.3965-63.2812 45.459-63.2812C32.0801-63.2812 20.8008-52.1973 19.7754-37.8906C11.9141-35.9375 6.83594-29.9805 6.83594-22.8027C6.83594-14.2578 13.4277-8.25195 22.998-8.25195Z"/>
  </g>
 </g>
</svg>
