<?xml version="1.0" encoding="UTF-8"?>
<!--Generator: Apple Native CoreSVG 149-->
<!DOCTYPE svg
PUBLIC "-//W3C//DTD SVG 1.1//EN"
       "http://www.w3.org/Graphics/SVG/1.1/DTD/svg11.dtd">
<svg version="1.1" xmlns="http://www.w3.org/2000/svg" xmlns:xlink="http://www.w3.org/1999/xlink" width="3300" height="2200">
 <!--glyph: "uni10088A.medium", point size: 100.000000, font version: "Version 16.0d12e3", template writer version: "8"-->
 <g id="Notes">
  <rect height="2200" id="artboard" style="fill:white;opacity:1" width="3300" x="0" y="0"/>
  <line id="" style="fill:none;stroke:black;opacity:1;stroke-width:0.5;" x1="263" x2="3036" y1="292" y2="292"/>
  <text style="stroke:none;fill:black;font-family:-apple-system,&quot;SF Pro Display&quot;,&quot;SF Pro Text&quot;,Helvetica,sans-serif;font-weight:bold;" transform="matrix(1 0 0 1 263 322)">Weight/Scale Variations</text>
  <text style="stroke:none;fill:black;font-family:-apple-system,&quot;SF Pro Display&quot;,&quot;SF Pro Text&quot;,Helvetica,sans-serif;text-anchor:middle;" transform="matrix(1 0 0 1 559.711 322)">Ultralight</text>
  <text style="stroke:none;fill:black;font-family:-apple-system,&quot;SF Pro Display&quot;,&quot;SF Pro Text&quot;,Helvetica,sans-serif;text-anchor:middle;" transform="matrix(1 0 0 1 856.422 322)">Thin</text>
  <text style="stroke:none;fill:black;font-family:-apple-system,&quot;SF Pro Display&quot;,&quot;SF Pro Text&quot;,Helvetica,sans-serif;text-anchor:middle;" transform="matrix(1 0 0 1 1153.13 322)">Light</text>
  <text style="stroke:none;fill:black;font-family:-apple-system,&quot;SF Pro Display&quot;,&quot;SF Pro Text&quot;,Helvetica,sans-serif;text-anchor:middle;" transform="matrix(1 0 0 1 1449.84 322)">Regular</text>
  <text style="stroke:none;fill:black;font-family:-apple-system,&quot;SF Pro Display&quot;,&quot;SF Pro Text&quot;,Helvetica,sans-serif;text-anchor:middle;" transform="matrix(1 0 0 1 1746.56 322)">Medium</text>
  <text style="stroke:none;fill:black;font-family:-apple-system,&quot;SF Pro Display&quot;,&quot;SF Pro Text&quot;,Helvetica,sans-serif;text-anchor:middle;" transform="matrix(1 0 0 1 2043.27 322)">Semibold</text>
  <text style="stroke:none;fill:black;font-family:-apple-system,&quot;SF Pro Display&quot;,&quot;SF Pro Text&quot;,Helvetica,sans-serif;text-anchor:middle;" transform="matrix(1 0 0 1 2339.98 322)">Bold</text>
  <text style="stroke:none;fill:black;font-family:-apple-system,&quot;SF Pro Display&quot;,&quot;SF Pro Text&quot;,Helvetica,sans-serif;text-anchor:middle;" transform="matrix(1 0 0 1 2636.69 322)">Heavy</text>
  <text style="stroke:none;fill:black;font-family:-apple-system,&quot;SF Pro Display&quot;,&quot;SF Pro Text&quot;,Helvetica,sans-serif;text-anchor:middle;" transform="matrix(1 0 0 1 2933.4 322)">Black</text>
  <line id="" style="fill:none;stroke:black;opacity:1;stroke-width:0.5;" x1="263" x2="3036" y1="1903" y2="1903"/>
  <g id="" transform="matrix(1 0 0 1 263 1933)">
   <path d="M9.24805 0.830078C13.5547 0.830078 17.1387-2.74414 17.1387-7.05078C17.1387-11.3574 13.5449-14.9316 9.23828-14.9316C4.94141-14.9316 1.36719-11.3574 1.36719-7.05078C1.36719-2.74414 4.95117 0.830078 9.24805 0.830078ZM9.24805-0.654297C5.70312-0.654297 2.87109-3.49609 2.87109-7.05078C2.87109-10.6055 5.69336-13.4473 9.23828-13.4473C12.793-13.4473 15.6348-10.6055 15.6445-7.05078C15.6543-3.49609 12.8027-0.654297 9.24805-0.654297ZM9.22852-3.62305C9.69727-3.62305 9.9707-3.93555 9.9707-4.45312L9.9707-6.31836L12.002-6.31836C12.5-6.31836 12.832-6.57227 12.832-7.04102C12.832-7.51953 12.5195-7.7832 12.002-7.7832L9.9707-7.7832L9.9707-9.81445C9.9707-10.332 9.69727-10.6543 9.22852-10.6543C8.75977-10.6543 8.50586-10.3125 8.50586-9.81445L8.50586-7.7832L6.49414-7.7832C5.97656-7.7832 5.64453-7.51953 5.64453-7.04102C5.64453-6.57227 5.99609-6.31836 6.49414-6.31836L8.50586-6.31836L8.50586-4.45312C8.50586-3.95508 8.75977-3.62305 9.22852-3.62305Z"/>
  </g>
  <g id="" transform="matrix(1 0 0 1 281.506 1933)">
   <path d="M11.709 2.91016C17.1582 2.91016 21.6699-1.61133 21.6699-7.05078C21.6699-12.5 17.1484-17.0117 11.6992-17.0117C6.25977-17.0117 1.74805-12.5 1.74805-7.05078C1.74805-1.61133 6.26953 2.91016 11.709 2.91016ZM11.709 1.25C7.09961 1.25 3.41797-2.44141 3.41797-7.05078C3.41797-11.6602 7.08984-15.3516 11.6992-15.3516C16.3086-15.3516 20-11.6602 20.0098-7.05078C20.0195-2.44141 16.3184 1.25 11.709 1.25ZM11.6797-2.66602C12.207-2.66602 12.5098-3.01758 12.5098-3.59375L12.5098-6.23047L15.3223-6.23047C15.8691-6.23047 16.25-6.51367 16.25-7.03125C16.25-7.55859 15.8887-7.86133 15.3223-7.86133L12.5098-7.86133L12.5098-10.6836C12.5098-11.25 12.207-11.6113 11.6797-11.6113C11.1621-11.6113 10.8789-11.2305 10.8789-10.6836L10.8789-7.86133L8.07617-7.86133C7.50977-7.86133 7.13867-7.55859 7.13867-7.03125C7.13867-6.51367 7.5293-6.23047 8.07617-6.23047L10.8789-6.23047L10.8789-3.59375C10.8789-3.03711 11.1621-2.66602 11.6797-2.66602Z"/>
  </g>
  <g id="" transform="matrix(1 0 0 1 304.924 1933)">
   <path d="M14.9707 5.66406C21.9336 5.66406 27.6953-0.0976562 27.6953-7.05078C27.6953-14.0137 21.9238-19.7754 14.9609-19.7754C8.00781-19.7754 2.25586-14.0137 2.25586-7.05078C2.25586-0.0976562 8.01758 5.66406 14.9707 5.66406ZM14.9707 3.84766C8.93555 3.84766 4.08203-1.01562 4.08203-7.05078C4.08203-13.0957 8.92578-17.9492 14.9609-17.9492C21.0059-17.9492 25.8594-13.0957 25.8691-7.05078C25.8789-1.01562 21.0156 3.84766 14.9707 3.84766ZM14.9414-1.38672C15.5176-1.38672 15.8594-1.77734 15.8594-2.38281L15.8594-6.13281L19.7754-6.13281C20.3711-6.13281 20.7812-6.46484 20.7812-7.02148C20.7812-7.59766 20.3906-7.93945 19.7754-7.93945L15.8594-7.93945L15.8594-11.8652C15.8594-12.4805 15.5176-12.8711 14.9414-12.8711C14.375-12.8711 14.0527-12.4609 14.0527-11.8652L14.0527-7.93945L10.1465-7.93945C9.53125-7.93945 9.13086-7.59766 9.13086-7.02148C9.13086-6.46484 9.55078-6.13281 10.1465-6.13281L14.0527-6.13281L14.0527-2.38281C14.0527-1.79688 14.375-1.38672 14.9414-1.38672Z"/>
  </g>
  <text style="stroke:none;fill:black;font-family:-apple-system,&quot;SF Pro Display&quot;,&quot;SF Pro Text&quot;,Helvetica,sans-serif;font-weight:bold;" transform="matrix(1 0 0 1 263 1953)">Design Variations</text>
  <text style="stroke:none;fill:black;font-family:-apple-system,&quot;SF Pro Display&quot;,&quot;SF Pro Text&quot;,Helvetica,sans-serif;" transform="matrix(1 0 0 1 263 1971)">Symbols are supported in up to nine weights and three scales.</text>
  <text style="stroke:none;fill:black;font-family:-apple-system,&quot;SF Pro Display&quot;,&quot;SF Pro Text&quot;,Helvetica,sans-serif;" transform="matrix(1 0 0 1 263 1989)">For optimal layout with text and other symbols, vertically align</text>
  <text style="stroke:none;fill:black;font-family:-apple-system,&quot;SF Pro Display&quot;,&quot;SF Pro Text&quot;,Helvetica,sans-serif;" transform="matrix(1 0 0 1 263 2007)">symbols with the adjacent text.</text>
  <line id="" style="fill:none;stroke:#00AEEF;stroke-width:0.5;opacity:1.0;" x1="776" x2="776" y1="1919" y2="1933"/>
  <g id="" transform="matrix(1 0 0 1 776 1933)">
   <path d="M3.31055 0.126953C3.82812 0.126953 4.08203-0.0683594 4.26758-0.605469L5.52734-4.0625L11.2891-4.0625L12.5488-0.605469C12.7344-0.0683594 12.9883 0.126953 13.4961 0.126953C14.0137 0.126953 14.3457-0.185547 14.3457-0.673828C14.3457-0.839844 14.3164-0.986328 14.2383-1.20117L9.6582-13.3887C9.43359-13.9941 9.0332-14.2871 8.4082-14.2871C7.80273-14.2871 7.39258-13.9941 7.17773-13.3984L2.59766-1.19141C2.51953-0.976562 2.49023-0.830078 2.49023-0.664062C2.49023-0.175781 2.80273 0.126953 3.31055 0.126953ZM6.00586-5.53711L8.37891-12.1094L8.42773-12.1094L10.8008-5.53711Z"/>
  </g>
  <line id="" style="fill:none;stroke:#00AEEF;stroke-width:0.5;opacity:1.0;" x1="792.836" x2="792.836" y1="1919" y2="1933"/>
  <text style="stroke:none;fill:black;font-family:-apple-system,&quot;SF Pro Display&quot;,&quot;SF Pro Text&quot;,Helvetica,sans-serif;font-weight:bold;" transform="matrix(1 0 0 1 776 1953)">Margins</text>
  <text style="stroke:none;fill:black;font-family:-apple-system,&quot;SF Pro Display&quot;,&quot;SF Pro Text&quot;,Helvetica,sans-serif;" transform="matrix(1 0 0 1 776 1971)">Leading and trailing margins on the left and right side of each symbol</text>
  <text style="stroke:none;fill:black;font-family:-apple-system,&quot;SF Pro Display&quot;,&quot;SF Pro Text&quot;,Helvetica,sans-serif;" transform="matrix(1 0 0 1 776 1989)">can be adjusted by modifying the x-location of the margin guidelines.</text>
  <text style="stroke:none;fill:black;font-family:-apple-system,&quot;SF Pro Display&quot;,&quot;SF Pro Text&quot;,Helvetica,sans-serif;" transform="matrix(1 0 0 1 776 2007)">Modifications are automatically applied proportionally to all</text>
  <text style="stroke:none;fill:black;font-family:-apple-system,&quot;SF Pro Display&quot;,&quot;SF Pro Text&quot;,Helvetica,sans-serif;" transform="matrix(1 0 0 1 776 2025)">scales and weights.</text>
  <g id="" transform="matrix(1 0 0 1 1289 1933)">
   <path d="M2.8418 1.86523L4.54102 3.57422C5.40039 4.44336 6.38672 4.38477 7.31445 3.35938L17.4902-7.85156C17.7539-7.76367 18.0273-7.7832 18.3398-7.8418L19.4043-8.03711L20.0684-7.36328L20.0293-6.80664C19.9902-6.30859 20.1172-5.92773 20.6055-5.44922L21.3672-4.70703C21.8457-4.22852 22.4609-4.19922 22.9297-4.66797L25.8398-7.58789C26.3086-8.05664 26.2891-8.65234 25.8105-9.13086L25.0391-9.89258C24.5605-10.3711 24.1895-10.5273 23.7109-10.4883L23.1348-10.4395L22.4902-11.0742L22.7344-12.1973C22.8613-12.7637 22.7051-13.2031 22.1191-13.7891L19.9219-15.9766C16.582-19.2969 12.1484-19.2188 9.25781-16.3281C8.83789-15.918 8.80859-15.3418 9.04297-14.9512C9.27734-14.5898 9.73633-14.3555 10.3809-14.5215C11.8457-14.8633 13.3691-14.9219 14.7949-13.9844L14.209-12.5293C14.0137-12.0508 13.9844-11.6504 14.1113-11.2891L3.04688-0.898438C2.06055 0.0195312 1.98242 0.996094 2.8418 1.86523ZM10.752-15.957C13.1836-17.7344 16.4746-17.4316 18.7012-15.2051L21.1328-12.793C21.3672-12.5586 21.4062-12.373 21.3379-12.0312L21.0156-10.5469L22.5195-9.0625L23.5059-9.12109C23.7598-9.13086 23.8379-9.11133 24.0332-8.91602L24.6094-8.33984L22.168-5.89844L21.5918-6.47461C21.3965-6.66992 21.3672-6.74805 21.377-7.01172L21.4453-7.98828L19.9512-9.47266L18.4277-9.21875C18.1055-9.15039 17.959-9.17969 17.7148-9.41406L15.7129-11.416C15.459-11.6504 15.4297-11.8164 15.5859-12.1875L16.4648-14.2773C14.9023-15.7324 12.8711-16.3574 10.8398-15.7617C10.6836-15.7227 10.625-15.8496 10.752-15.957ZM5.27344 2.30469L4.10156 1.14258C3.63281 0.683594 3.74023 0.341797 4.14062-0.0195312L14.9512-10.1953L16.416-8.71094L6.42578 2.27539C6.07422 2.67578 5.74219 2.77344 5.27344 2.30469Z"/>
  </g>
  <text style="stroke:none;fill:black;font-family:-apple-system,&quot;SF Pro Display&quot;,&quot;SF Pro Text&quot;,Helvetica,sans-serif;font-weight:bold;" transform="matrix(1 0 0 1 1289 1953)">Exporting</text>
  <text style="stroke:none;fill:black;font-family:-apple-system,&quot;SF Pro Display&quot;,&quot;SF Pro Text&quot;,Helvetica,sans-serif;" transform="matrix(1 0 0 1 1289 1971)">Symbols should be outlined when exporting to ensure the</text>
  <text style="stroke:none;fill:black;font-family:-apple-system,&quot;SF Pro Display&quot;,&quot;SF Pro Text&quot;,Helvetica,sans-serif;" transform="matrix(1 0 0 1 1289 1989)">design is preserved when submitting to Xcode.</text>
  <text id="template-version" style="stroke:none;fill:black;font-family:-apple-system,&quot;SF Pro Display&quot;,&quot;SF Pro Text&quot;,Helvetica,sans-serif;text-anchor:end;" transform="matrix(1 0 0 1 3036 1933)">Template v.2.0</text>
  <text style="stroke:none;fill:black;font-family:-apple-system,&quot;SF Pro Display&quot;,&quot;SF Pro Text&quot;,Helvetica,sans-serif;text-anchor:end;" transform="matrix(1 0 0 1 3036 1951)">Requires Xcode 12 or greater</text>
  <text style="stroke:none;fill:black;font-family:-apple-system,&quot;SF Pro Display&quot;,&quot;SF Pro Text&quot;,Helvetica,sans-serif;text-anchor:end;" transform="matrix(1 0 0 1 3036 1969)">Generated from target</text>
  <text style="stroke:none;fill:black;font-family:-apple-system,&quot;SF Pro Display&quot;,&quot;SF Pro Text&quot;,Helvetica,sans-serif;text-anchor:end;" transform="matrix(1 0 0 1 3036 1987)">Typeset at 100 points</text>
  <text style="stroke:none;fill:black;font-family:-apple-system,&quot;SF Pro Display&quot;,&quot;SF Pro Text&quot;,Helvetica,sans-serif;" transform="matrix(1 0 0 1 263 726)">Small</text>
  <text style="stroke:none;fill:black;font-family:-apple-system,&quot;SF Pro Display&quot;,&quot;SF Pro Text&quot;,Helvetica,sans-serif;" transform="matrix(1 0 0 1 263 1156)">Medium</text>
  <text style="stroke:none;fill:black;font-family:-apple-system,&quot;SF Pro Display&quot;,&quot;SF Pro Text&quot;,Helvetica,sans-serif;" transform="matrix(1 0 0 1 263 1586)">Large</text>
 </g>
 <g id="Guides">
  <g id="H-reference" style="fill:#27AAE1;stroke:none;" transform="matrix(1 0 0 1 339 696)">
   <path d="M0.976562 0L3.66211 0L12.9883-24.4629L45.752-24.4629L55.127 0L57.7637 0L30.6152-70.459L28.125-70.459ZM29.3457-67.1387L29.4434-67.1387L44.873-26.709L13.8672-26.709Z"/>
  </g>
  <line id="Baseline-S" style="fill:none;stroke:#27AAE1;opacity:1;stroke-width:0.5;" x1="263" x2="3036" y1="696" y2="696"/>
  <line id="Capline-S" style="fill:none;stroke:#27AAE1;opacity:1;stroke-width:0.5;" x1="263" x2="3036" y1="625.541" y2="625.541"/>
  <g id="H-reference" style="fill:#27AAE1;stroke:none;" transform="matrix(1 0 0 1 339 1126)">
   <path d="M0.976562 0L3.66211 0L12.9883-24.4629L45.752-24.4629L55.127 0L57.7637 0L30.6152-70.459L28.125-70.459ZM29.3457-67.1387L29.4434-67.1387L44.873-26.709L13.8672-26.709Z"/>
  </g>
  <line id="Baseline-M" style="fill:none;stroke:#27AAE1;opacity:1;stroke-width:0.5;" x1="263" x2="3036" y1="1126" y2="1126"/>
  <line id="Capline-M" style="fill:none;stroke:#27AAE1;opacity:1;stroke-width:0.5;" x1="263" x2="3036" y1="1055.54" y2="1055.54"/>
  <g id="H-reference" style="fill:#27AAE1;stroke:none;" transform="matrix(1 0 0 1 339 1556)">
   <path d="M0.976562 0L3.66211 0L12.9883-24.4629L45.752-24.4629L55.127 0L57.7637 0L30.6152-70.459L28.125-70.459ZM29.3457-67.1387L29.4434-67.1387L44.873-26.709L13.8672-26.709Z"/>
  </g>
  <line id="Baseline-L" style="fill:none;stroke:#27AAE1;opacity:1;stroke-width:0.5;" x1="263" x2="3036" y1="1556" y2="1556"/>
  <line id="Capline-L" style="fill:none;stroke:#27AAE1;opacity:1;stroke-width:0.5;" x1="263" x2="3036" y1="1485.54" y2="1485.54"/>
  <line id="left-margin" style="fill:none;stroke:#00AEEF;stroke-width:0.5;opacity:1.0;" x1="1391.3" x2="1391.3" y1="1030.79" y2="1150.12"/>
  <line id="right-margin" style="fill:none;stroke:#00AEEF;stroke-width:0.5;opacity:1.0;" x1="1508.39" x2="1508.39" y1="1030.79" y2="1150.12"/>
 </g>
 <g id="Symbols">
  <g id="Black-L" transform="matrix(1 0 0 1 2854.05 1556)">
   <path d="M79.3457 32.8613C116.748 32.8613 147.412 2.19727 147.412-35.2051C147.412-72.6074 116.748-103.271 79.2969-103.271C41.8945-103.271 11.2793-72.6074 11.2793-35.2051C11.2793 2.19727 41.9434 32.8613 79.3457 32.8613ZM79.3457 12.4023C52.9785 12.4023 31.7383-8.83789 31.7383-35.2051C31.7383-61.5723 52.9297-82.8125 79.2969-82.8125C105.664-82.8125 126.953-61.5723 126.953-35.2051C127.002-8.83789 105.713 12.4023 79.3457 12.4023ZM79.3457 3.80859C100.684 3.80859 118.359-13.8672 118.359-35.2051C118.359-56.7383 100.977-74.2676 79.3457-74.2676C58.0078-74.2676 40.2832-56.543 40.2832-35.2051C40.2832-13.8672 58.0566 3.80859 79.3457 3.80859ZM79.3457-13.0859C67.4316-13.0859 57.2266-23.291 57.2266-35.2051C57.2266-47.2168 67.334-57.373 79.3457-57.373C91.2598-57.373 101.465-47.1191 101.465-35.2051C101.465-23.2422 91.3086-13.0859 79.3457-13.0859ZM79.3457-21.6309C86.7188-21.6309 92.9199-27.832 92.9199-35.2539C92.9199-42.5293 86.6699-48.7793 79.3457-48.7793C71.9727-48.7793 65.7715-42.627 65.7715-35.2539C65.7715-27.8809 72.0215-21.6309 79.3457-21.6309Z"/>
  </g>
  <g id="Heavy-L" transform="matrix(1 0 0 1 2558.39 1556)">
   <path d="M78.2715 31.7871C115.088 31.7871 145.312 1.5625 145.312-35.2051C145.312-72.0215 115.039-102.246 78.2715-102.246C41.4551-102.246 11.2793-72.0215 11.2793-35.2051C11.2793 1.5625 41.5039 31.7871 78.2715 31.7871ZM78.2715 14.0137C51.0254 14.0137 29.0527-7.95898 29.0527-35.2051C29.0527-62.5 50.9766-84.4727 78.2715-84.4727C105.518-84.4727 127.49-62.5 127.539-35.2051C127.539-7.95898 105.566 14.0137 78.2715 14.0137ZM78.2715 4.05273C99.7559 4.05273 117.529-13.7695 117.529-35.2051C117.529-56.8359 99.9512-74.5117 78.2715-74.5117C56.8359-74.5117 39.0137-56.6895 39.0137-35.2051C39.0137-13.7695 56.8848 4.05273 78.2715 4.05273ZM78.2715-10.9375C65.1855-10.9375 54.0039-22.1191 54.0039-35.2051C54.0039-48.4375 65.0879-59.5215 78.2715-59.5215C91.4062-59.5215 102.588-48.3398 102.588-35.2051C102.588-22.0215 91.4551-10.9375 78.2715-10.9375ZM78.3203-20.8984C86.1328-20.8984 92.6758-27.3926 92.6758-35.2539C92.6758-43.0176 86.084-49.5605 78.3203-49.5605C70.459-49.5605 63.916-43.0664 63.916-35.2539C63.916-27.4414 70.5078-20.8984 78.3203-20.8984Z"/>
  </g>
  <g id="Bold-L" transform="matrix(1 0 0 1 2262.88 1556)">
   <path d="M77.0996 30.5664C113.232 30.5664 142.92 0.878906 142.92-35.2539C142.92-71.3379 113.184-101.074 77.0508-101.074C40.9668-101.074 11.2793-71.3379 11.2793-35.2539C11.2793 0.878906 41.0156 30.5664 77.0996 30.5664ZM77.0996 15.8203C48.8281 15.8203 26.0742-6.98242 26.0742-35.2539C26.0742-63.5254 48.7793-86.2793 77.0508-86.2793C105.371-86.2793 128.125-63.5254 128.174-35.2539C128.174-6.98242 105.371 15.8203 77.0996 15.8203ZM77.0996 4.24805C98.6816 4.24805 116.602-13.6719 116.602-35.2051C116.602-56.8848 98.7793-74.7559 77.0996-74.7559C55.5176-74.7559 37.5977-56.8359 37.5977-35.2051C37.5977-13.6719 55.5664 4.24805 77.0996 4.24805ZM77.0996-8.49609C62.6465-8.49609 50.3906-20.8008 50.3906-35.2051C50.3906-49.8047 62.5977-61.9629 77.0996-61.9629C91.5527-61.9629 103.809-49.707 103.809-35.2051C103.809-20.7031 91.6016-8.49609 77.0996-8.49609ZM77.1484-20.0195C85.4492-20.0195 92.334-26.9043 92.334-35.2539C92.334-43.5547 85.4004-50.4395 77.1484-50.4395C68.7988-50.4395 61.9141-43.5547 61.9141-35.2539C61.9141-26.9531 68.8477-20.0195 77.1484-20.0195Z"/>
  </g>
  <g id="Semibold-L" transform="matrix(1 0 0 1 1966.97 1556)">
   <path d="M76.2695 29.7363C111.914 29.7363 141.309 0.390625 141.309-35.2539C141.309-70.8984 111.865-100.244 76.2695-100.244C40.625-100.244 11.2793-70.8984 11.2793-35.2539C11.2793 0.390625 40.6738 29.7363 76.2695 29.7363ZM76.2695 17.041C47.3145 17.041 24.0234-6.25 24.0234-35.2539C24.0234-64.209 47.2656-87.5488 76.2695-87.5488C105.225-87.5488 128.564-64.209 128.613-35.2539C128.662-6.25 105.273 17.041 76.2695 17.041ZM76.2695 4.44336C97.998 4.44336 115.918-13.623 115.918-35.2539C115.918-56.9824 97.998-74.9512 76.2695-74.9512C54.5898-74.9512 36.6211-56.9336 36.6211-35.2539C36.6211-13.623 54.6875 4.44336 76.2695 4.44336ZM76.2695-6.83594C60.9375-6.83594 47.9004-19.873 47.9004-35.2539C47.9004-50.7324 60.8398-63.6719 76.2695-63.6719C91.6504-63.6719 104.639-50.6348 104.639-35.2539C104.639-19.8242 91.6992-6.83594 76.2695-6.83594ZM76.3184-19.4336C84.9609-19.4336 92.1387-26.5625 92.1387-35.2539C92.1387-43.8965 84.9121-51.0254 76.3184-51.0254C67.6758-51.0254 60.498-43.8965 60.498-35.2539C60.498-26.6113 67.6758-19.4336 76.3184-19.4336Z"/>
  </g>
  <g id="Medium-L" transform="matrix(1 0 0 1 1670.87 1556)">
   <path d="M75.6836 29.1504C110.938 29.1504 140.088 0 140.088-35.2539C140.088-70.5078 110.889-99.6582 75.6348-99.6582C40.3809-99.6582 11.2793-70.5078 11.2793-35.2539C11.2793 0 40.3809 29.1504 75.6836 29.1504ZM75.6836 18.0176C46.1426 18.0176 22.4609-5.76172 22.4609-35.2539C22.4609-64.7461 46.1426-88.5254 75.6348-88.5254C105.127-88.5254 128.906-64.7461 128.906-35.2539C128.955-5.76172 105.176 18.0176 75.6836 18.0176ZM75.6836 4.54102C97.4121 4.54102 115.43-13.5254 115.43-35.2539C115.43-57.0312 97.4121-75.0977 75.6836-75.0977C53.9062-75.0977 35.8887-56.9824 35.8887-35.2539C35.8887-13.5254 54.0039 4.54102 75.6836 4.54102ZM75.6836-5.61523C59.6191-5.61523 46.0449-19.1895 46.0449-35.2539C46.0449-51.416 59.5215-64.9414 75.6836-64.9414C91.748-64.9414 105.322-51.3672 105.322-35.2539C105.322-19.0918 91.7969-5.61523 75.6836-5.61523ZM75.7324-18.9941C84.5703-18.9941 91.9434-26.3184 91.9434-35.2539C91.9434-44.1406 84.5703-51.4648 75.7324-51.4648C66.7969-51.4648 59.4238-44.1895 59.4238-35.2539C59.4238-26.3184 66.7969-18.9941 75.7324-18.9941Z"/>
  </g>
  <g id="Regular-L" transform="matrix(1 0 0 1 1374.97 1556)">
   <path d="M74.8535 28.3203C109.668 28.3203 138.477-0.488281 138.477-35.2539C138.477-70.0684 109.619-98.877 74.8047-98.877C40.0391-98.877 11.2793-70.0684 11.2793-35.2539C11.2793-0.488281 40.0879 28.3203 74.8535 28.3203ZM74.8535 19.2383C44.6777 19.2383 20.4102-5.07812 20.4102-35.2539C20.4102-65.4785 44.6289-89.7461 74.8047-89.7461C105.029-89.7461 129.297-65.4785 129.346-35.2539C129.395-5.07812 105.078 19.2383 74.8535 19.2383ZM74.8535 4.6875C96.7285 4.6875 114.795-13.4766 114.795-35.2539C114.795-57.0801 96.6309-75.2441 74.8535-75.2441C53.0273-75.2441 34.9121-57.0801 34.9121-35.2539C34.9121-13.4766 53.125 4.6875 74.8535 4.6875ZM74.8535-3.95508C57.9102-3.95508 43.6035-18.2617 43.6035-35.2539C43.6035-52.3438 57.8125-66.6016 74.8535-66.6016C91.8457-66.6016 106.152-52.2949 106.152-35.2539C106.152-18.2129 91.8945-3.95508 74.8535-3.95508ZM74.9023-18.457C84.1309-18.457 91.748-25.9766 91.748-35.3027C91.748-44.5312 84.1309-52.0508 74.9023-52.0508C65.625-52.0508 58.0566-44.5312 58.0566-35.3027C58.0566-25.9766 65.6738-18.457 74.9023-18.457Z"/>
  </g>
  <g id="Light-L" transform="matrix(1 0 0 1 1079.18 1556)">
   <path d="M73.9258 27.3926C108.301 27.3926 136.621-0.927734 136.621-35.2539C136.621-69.6289 108.252-97.9492 73.9258-97.9492C39.5508-97.9492 11.2793-69.6289 11.2793-35.2539C11.2793-0.927734 39.5996 27.3926 73.9258 27.3926ZM73.9258 20.5078C43.1152 20.5078 18.2129-4.44336 18.2129-35.2539C18.2129-66.1133 43.0664-91.0156 73.9258-91.0156C104.736-91.0156 129.688-66.1133 129.736-35.2539C129.736-4.44336 104.785 20.5078 73.9258 20.5078ZM73.9258 4.6875C95.752 4.6875 113.867-13.4766 113.867-35.2051C113.867-57.0312 95.7031-75.2441 73.9258-75.2441C52.0996-75.2441 34.0332-57.0312 34.0332-35.2051C34.0332-13.4766 52.1973 4.6875 73.9258 4.6875ZM73.9258-1.9043C55.8594-1.9043 40.625-17.1387 40.625-35.2051C40.625-53.418 55.7617-68.6035 73.9258-68.6035C92.041-68.6035 107.227-53.3691 107.227-35.2051C107.227-17.0898 92.041-1.9043 73.9258-1.9043ZM73.9746-17.7734C83.5449-17.7734 91.5039-25.6348 91.5039-35.2539C91.5039-44.8242 83.5449-52.7344 73.9746-52.7344C64.3555-52.7344 56.4453-44.8242 56.4453-35.2539C56.4453-25.6348 64.4043-17.7734 73.9746-17.7734Z"/>
  </g>
  <g id="Thin-L" transform="matrix(1 0 0 1 783.693 1556)">
   <path d="M72.7051 26.1719C106.494 26.1719 134.18-1.51367 134.18-35.2539C134.18-69.043 106.494-96.7285 72.7051-96.7285C38.9648-96.7285 11.2793-69.043 11.2793-35.2539C11.2793-1.51367 38.9648 26.1719 72.7051 26.1719ZM72.7051 22.168C41.0156 22.168 15.2832-3.56445 15.2832-35.2539C15.2832-66.9922 41.0156-92.7246 72.7051-92.7246C104.395-92.7246 130.176-66.9922 130.176-35.2539C130.176-3.56445 104.443 22.168 72.7051 22.168ZM72.7051 4.6875C94.5312 4.6875 112.598-13.4766 112.598-35.2051C112.598-56.9824 94.4336-75.1953 72.7051-75.1953C50.9277-75.1953 32.8125-56.9824 32.8125-35.2051C32.8125-13.4766 51.0254 4.6875 72.7051 4.6875ZM72.7051 0.78125C53.1738 0.78125 36.7676-15.625 36.7676-35.2051C36.7676-54.834 53.0762-71.2402 72.7051-71.2402C92.2852-71.2402 108.691-54.834 108.691-35.2051C108.691-15.625 92.2852 0.78125 72.7051 0.78125ZM72.7051-16.8457C82.7148-16.8457 91.1621-25.1953 91.1621-35.2051C91.1621-45.2637 82.7148-53.6133 72.7051-53.6133C62.6465-53.6133 54.2969-45.2637 54.2969-35.2051C54.2969-25.1953 62.6953-16.8457 72.7051-16.8457Z"/>
  </g>
  <g id="Ultralight-L" transform="matrix(1 0 0 1 487.616 1556)">
   <path d="M72.1191 25.5371C105.566 25.5371 132.91-1.80664 132.91-35.2539C132.91-68.75 105.566-96.0938 72.1191-96.0938C38.623-96.0938 11.2793-68.75 11.2793-35.2539C11.2793-1.80664 38.623 25.5371 72.1191 25.5371ZM72.1191 23.0469C39.9414 23.0469 13.7695-3.125 13.7695-35.2539C13.7695-67.4316 39.9414-93.6035 72.1191-93.6035C104.248-93.6035 130.42-67.4316 130.42-35.2539C130.42-3.125 104.248 23.0469 72.1191 23.0469ZM72.1191 4.6875C93.8965 4.6875 111.963-13.4766 111.963-35.2051C111.963-56.9824 93.7988-75.1465 72.1191-75.1465C50.293-75.1465 32.2266-56.9824 32.2266-35.2051C32.2266-13.4766 50.3906 4.6875 72.1191 4.6875ZM72.1191 2.14844C51.8066 2.14844 34.7656-14.8926 34.7656-35.2051C34.7656-55.5664 51.709-72.6074 72.1191-72.6074C92.3828-72.6074 109.424-55.5664 109.424-35.2051C109.424-14.8926 92.3828 2.14844 72.1191 2.14844ZM72.0703-16.4062C82.3242-16.4062 90.9668-24.9512 90.9668-35.1562C90.9668-45.5078 82.3242-54.0527 72.0703-54.0527C61.7676-54.0527 53.2227-45.5078 53.2227-35.1562C53.2227-24.9512 61.8652-16.4062 72.0703-16.4062Z"/>
  </g>
  <g id="Black-M" transform="matrix(1 0 0 1 2870.97 1126)">
   <path d="M62.4023 18.457C91.9922 18.457 116.113-5.61523 116.113-35.2051C116.113-64.7949 91.9922-88.8672 62.4023-88.8672C32.8125-88.8672 8.74023-64.7949 8.74023-35.2051C8.74023-5.61523 32.8125 18.457 62.4023 18.457ZM62.4023 0.195312C42.8711 0.195312 27.002-15.625 27.002-35.2051C27.002-54.7363 42.8711-70.6055 62.4023-70.6055C81.9824-70.6055 97.8027-54.7363 97.8027-35.2051C97.8027-15.625 81.9824 0.195312 62.4023 0.195312ZM62.4023-5.22461C78.8086-5.22461 92.3828-18.7988 92.3828-35.2051C92.3828-51.7578 79.1016-65.1367 62.4023-65.1367C46.0449-65.1367 32.4707-51.5625 32.4707-35.2051C32.4707-18.7988 46.0938-5.22461 62.4023-5.22461ZM62.4023-19.873C54.1992-19.873 47.1191-27.002 47.1191-35.2051C47.1191-43.457 54.1504-50.4883 62.4023-50.4883C70.6055-50.4883 77.7344-43.4082 77.7344-35.2051C77.7344-26.9531 70.7031-19.873 62.4023-19.873ZM62.4023-25.3418C67.7246-25.3418 72.2656-29.8828 72.2656-35.2051C72.2656-40.4785 67.6758-45.0684 62.4023-45.0684C57.0801-45.0684 52.5391-40.5273 52.5391-35.2051C52.5391-29.9316 57.1289-25.3418 62.4023-25.3418Z"/>
  </g>
  <g id="Heavy-M" transform="matrix(1 0 0 1 2575.19 1126)">
   <path d="M61.5234 17.5293C90.5273 17.5293 114.258-6.20117 114.258-35.2051C114.258-64.2578 90.5273-87.9883 61.4746-87.9883C32.4707-87.9883 8.74023-64.2578 8.74023-35.2051C8.74023-6.20117 32.4707 17.5293 61.5234 17.5293ZM61.5234 1.61133C41.1133 1.61133 24.6582-14.8438 24.6582-35.2051C24.6582-55.6152 41.1133-72.0703 61.4746-72.0703C81.8848-72.0703 98.3398-55.6152 98.3398-35.2051C98.3398-14.8438 81.8848 1.61133 61.5234 1.61133ZM61.5234-5.0293C78.0273-5.0293 91.6992-18.7012 91.6992-35.2051C91.6992-51.8555 78.2227-65.4297 61.5234-65.4297C44.9707-65.4297 31.2988-51.709 31.2988-35.2051C31.2988-18.7012 45.0684-5.0293 61.5234-5.0293ZM61.5234-18.0664C52.2949-18.0664 44.3359-25.9766 44.3359-35.2051C44.3359-44.5312 52.1973-52.3438 61.5234-52.3438C70.752-52.3438 78.6621-44.4336 78.6621-35.2051C78.6621-25.9277 70.8008-18.0664 61.5234-18.0664ZM61.5234-24.707C67.2363-24.707 72.0215-29.4922 72.0215-35.2051C72.0215-40.8691 67.1875-45.7031 61.5234-45.7031C55.8105-45.7031 50.9766-40.918 50.9766-35.2051C50.9766-29.541 55.8594-24.707 61.5234-24.707Z"/>
  </g>
  <g id="Bold-M" transform="matrix(1 0 0 1 2279.5 1126)">
   <path d="M60.498 16.5039C88.8672 16.5039 112.207-6.83594 112.207-35.2051C112.207-63.623 88.8672-86.9629 60.4492-86.9629C32.0312-86.9629 8.74023-63.623 8.74023-35.2051C8.74023-6.83594 32.0801 16.5039 60.498 16.5039ZM60.498 3.22266C39.1602 3.22266 22.0703-13.916 22.0703-35.2051C22.0703-56.543 39.1602-73.6816 60.4492-73.6816C81.7383-73.6816 98.9258-56.543 98.9258-35.2051C98.9746-13.916 81.7871 3.22266 60.498 3.22266ZM60.498-4.78516C77.1484-4.78516 90.918-18.6035 90.918-35.2051C90.918-51.9531 77.2461-65.7227 60.498-65.7227C43.7988-65.7227 30.0293-51.9043 30.0293-35.2051C30.0293-18.6035 43.8965-4.78516 60.498-4.78516ZM60.498-16.0156C50.0977-16.0156 41.2598-24.8535 41.2598-35.2051C41.2598-45.6543 50.0488-54.4434 60.498-54.4434C70.8496-54.4434 79.6875-45.6055 79.6875-35.2051C79.6875-24.8047 70.8984-16.0156 60.498-16.0156ZM60.498-23.9746C66.6504-23.9746 71.7773-29.0527 71.7773-35.2539C71.7773-41.3574 66.6016-46.4844 60.498-46.4844C54.3457-46.4844 49.2188-41.3574 49.2188-35.2539C49.2188-29.1016 54.3945-23.9746 60.498-23.9746Z"/>
  </g>
  <g id="Semibold-M" transform="matrix(1 0 0 1 1983.5 1126)">
   <path d="M59.7656 15.8203C87.7441 15.8203 110.791-7.27539 110.791-35.2539C110.791-63.2324 87.6953-86.2793 59.7656-86.2793C31.7871-86.2793 8.74023-63.2324 8.74023-35.2539C8.74023-7.27539 31.7871 15.8203 59.7656 15.8203ZM59.7656 4.3457C37.8418 4.3457 20.2637-13.3301 20.2637-35.2539C20.2637-57.1777 37.793-74.8047 59.7656-74.8047C81.6895-74.8047 99.3164-57.1777 99.3652-35.2539C99.3652-13.3301 81.6895 4.3457 59.7656 4.3457ZM59.7656-4.58984C76.5137-4.58984 90.4297-18.5059 90.4297-35.2539C90.4297-52.0508 76.6113-65.918 59.7656-65.918C43.0176-65.918 29.1504-52.002 29.1504-35.2539C29.1504-18.5059 43.0664-4.58984 59.7656-4.58984ZM59.7656-14.5996C48.6328-14.5996 39.1602-24.0723 39.1602-35.2539C39.1602-46.4844 48.584-55.9082 59.7656-55.9082C70.9473-55.9082 80.4199-46.4355 80.4199-35.2539C80.4199-24.0234 70.9961-14.5996 59.7656-14.5996ZM59.8145-23.4863C66.2109-23.4863 71.582-28.7598 71.582-35.2539C71.582-41.6504 66.2109-46.9727 59.8145-46.9727C53.3691-46.9727 47.998-41.6992 47.998-35.2539C47.998-28.8086 53.3691-23.4863 59.8145-23.4863Z"/>
  </g>
  <g id="Medium-M" transform="matrix(1 0 0 1 1687.3 1126)">
   <path d="M59.2285 15.2344C86.9141 15.2344 109.766-7.61719 109.766-35.2539C109.766-62.8906 86.8652-85.7422 59.1797-85.7422C31.543-85.7422 8.74023-62.8906 8.74023-35.2539C8.74023-7.61719 31.5918 15.2344 59.2285 15.2344ZM59.2285 5.17578C36.8164 5.17578 18.8965-12.8418 18.8965-35.2539C18.8965-57.666 36.8164-75.6348 59.1797-75.6348C81.5918-75.6348 99.6094-57.666 99.6582-35.2539C99.707-12.8418 81.6406 5.17578 59.2285 5.17578ZM59.2285-4.44336C76.0742-4.44336 90.0391-18.457 90.0391-35.2539C90.0391-52.0996 76.0742-66.0645 59.2285-66.0645C42.3828-66.0645 28.4668-52.0996 28.4668-35.2539C28.4668-18.457 42.4805-4.44336 59.2285-4.44336ZM59.2285-13.5254C47.5098-13.5254 37.5488-23.4863 37.5488-35.2539C37.5488-47.0703 47.4121-56.9824 59.2285-56.9824C70.9961-56.9824 80.957-47.0215 80.957-35.2539C80.957-23.4375 71.0449-13.5254 59.2285-13.5254ZM59.2773-23.0957C65.918-23.0957 71.4355-28.5645 71.4355-35.2539C71.4355-41.8945 65.918-47.4121 59.2773-47.4121C52.5879-47.4121 47.0703-41.9434 47.0703-35.2539C47.0703-28.5645 52.6367-23.0957 59.2773-23.0957Z"/>
  </g>
  <g id="Regular-M" transform="matrix(1 0 0 1 1391.3 1126)">
   <path d="M58.5449 14.5508C85.791 14.5508 108.35-8.05664 108.35-35.2539C108.35-62.5 85.7422-85.0586 58.4961-85.0586C31.2988-85.0586 8.74023-62.5 8.74023-35.2539C8.74023-8.05664 31.3477 14.5508 58.5449 14.5508ZM58.5449 6.25C35.498 6.25 17.0898-12.207 17.0898-35.2539C17.0898-58.3008 35.4492-76.7578 58.4961-76.7578C81.543-76.7578 100-58.3008 100.049-35.2539C100.098-12.207 81.5918 6.25 58.5449 6.25ZM58.5449-4.29688C75.4883-4.29688 89.502-18.3594 89.502-35.2539C89.502-52.1973 75.4395-66.2598 58.5449-66.2598C41.6016-66.2598 27.5879-52.1973 27.5879-35.2539C27.5879-18.3594 41.6504-4.29688 58.5449-4.29688ZM58.5449-12.1582C45.9961-12.1582 35.4492-22.7051 35.4492-35.2539C35.4492-47.9004 45.9473-58.3984 58.5449-58.3984C71.0938-58.3984 81.6406-47.8516 81.6406-35.2539C81.6406-22.6562 71.1426-12.1582 58.5449-12.1582ZM58.5938-22.6074C65.5273-22.6074 71.2402-28.2715 71.2402-35.3027C71.2402-42.2363 65.5273-47.9004 58.5938-47.9004C51.6113-47.9004 45.8984-42.2363 45.8984-35.3027C45.8984-28.2715 51.6113-22.6074 58.5938-22.6074Z"/>
  </g>
  <g id="Light-M" transform="matrix(1 0 0 1 1095.42 1126)">
   <path d="M57.7148 13.7207C84.5215 13.7207 106.689-8.44727 106.689-35.2539C106.689-62.1094 84.5215-84.2285 57.666-84.2285C30.8594-84.2285 8.74023-62.1094 8.74023-35.2539C8.74023-8.44727 30.9082 13.7207 57.7148 13.7207ZM57.7148 7.37305C34.082 7.37305 15.0879-11.6699 15.0879-35.2539C15.0879-58.8867 34.082-77.9297 57.666-77.9297C81.2988-77.9297 100.342-58.8867 100.391-35.2539C100.391-11.6699 81.3477 7.37305 57.7148 7.37305ZM57.7148-4.29688C74.6582-4.29688 88.6719-18.3594 88.6719-35.2539C88.6719-52.1484 74.5605-66.2598 57.7148-66.2598C40.8203-66.2598 26.7578-52.1484 26.7578-35.2539C26.7578-18.3594 40.8691-4.29688 57.7148-4.29688ZM57.7148-10.3027C44.1895-10.3027 32.8125-21.7285 32.8125-35.2539C32.8125-48.8281 44.1406-60.2051 57.7148-60.2051C71.2402-60.2051 82.6172-48.8281 82.6172-35.2539C82.6172-21.6797 71.2891-10.3027 57.7148-10.3027ZM57.7637-21.9727C64.9902-21.9727 70.9961-27.9785 70.9961-35.2539C70.9961-42.5293 64.9902-48.4863 57.7637-48.4863C50.4395-48.4863 44.4336-42.5293 44.4336-35.2539C44.4336-27.9785 50.4883-21.9727 57.7637-21.9727Z"/>
  </g>
  <g id="Thin-M" transform="matrix(1 0 0 1 799.806 1126)">
   <path d="M56.6406 12.5977C82.9102 12.5977 104.492-8.98438 104.492-35.2539C104.492-61.5723 82.9102-83.1543 56.5918-83.1543C30.3223-83.1543 8.74023-61.5723 8.74023-35.2539C8.74023-8.98438 30.3223 12.5977 56.6406 12.5977ZM56.6406 8.88672C32.2266 8.88672 12.4512-10.8887 12.4512-35.2539C12.4512-59.6191 32.2266-79.4434 56.5918-79.4434C81.0059-79.4434 100.781-59.6191 100.781-35.2539C100.781-10.8887 81.0059 8.88672 56.6406 8.88672ZM56.6406-4.29688C73.5352-4.29688 87.5488-18.3594 87.5488-35.2051C87.5488-52.0996 73.4375-66.2109 56.6406-66.2109C39.7461-66.2109 25.6836-52.0996 25.6836-35.2051C25.6836-18.3594 39.7949-4.29688 56.6406-4.29688ZM56.6406-7.91016C41.7969-7.91016 29.3457-20.3613 29.3457-35.2051C29.3457-50.0977 41.6992-62.5488 56.6406-62.5488C71.4355-62.5488 83.9355-50.0977 83.9355-35.2051C83.9355-20.3613 71.4844-7.91016 56.6406-7.91016ZM56.6406-21.1914C64.3066-21.1914 70.7031-27.5391 70.7031-35.2051C70.7031-42.9199 64.3066-49.2676 56.6406-49.2676C48.9258-49.2676 42.5293-42.9199 42.5293-35.2051C42.5293-27.5391 48.9746-21.1914 56.6406-21.1914Z"/>
  </g>
  <g id="Ultralight-M" transform="matrix(1 0 0 1 503.656 1126)">
   <path d="M56.0547 12.0605C82.0801 12.0605 103.369-9.22852 103.369-35.2539C103.369-61.2793 82.0801-82.5684 56.0547-82.5684C30.0293-82.5684 8.74023-61.2793 8.74023-35.2539C8.74023-9.22852 30.0293 12.0605 56.0547 12.0605ZM56.0547 9.66797C31.2988 9.66797 11.1328-10.498 11.1328-35.2539C11.1328-60.0586 31.2988-80.1758 56.0547-80.1758C80.8594-80.1758 100.977-60.0586 100.977-35.2539C100.977-10.498 80.8594 9.66797 56.0547 9.66797ZM56.0547-4.29688C72.9492-4.29688 86.9629-18.3594 86.9629-35.2051C86.9629-52.0996 72.9004-66.1621 56.0547-66.1621C39.1602-66.1621 25.1465-52.0996 25.1465-35.2051C25.1465-18.3594 39.2578-4.29688 56.0547-4.29688ZM56.0547-6.68945C40.5273-6.68945 27.5391-19.6777 27.5391-35.2051C27.5391-50.7812 40.4785-63.7695 56.0547-63.7695C71.582-63.7695 84.5703-50.7812 84.5703-35.2051C84.5703-19.6777 71.582-6.68945 56.0547-6.68945ZM56.0547-20.752C63.916-20.752 70.5566-27.3438 70.5566-35.2051C70.5566-43.1152 63.916-49.707 56.0547-49.707C48.1445-49.707 41.5527-43.1152 41.5527-35.2051C41.5527-27.3438 48.1934-20.752 56.0547-20.752Z"/>
  </g>
  <g id="Black-S" transform="matrix(1 0 0 1 2884.57 696)">
   <path d="M48.8281 6.78711C71.9727 6.78711 90.8203-12.0605 90.8203-35.2051C90.8203-58.3496 71.9727-77.1973 48.8281-77.1973C25.6836-77.1973 6.83594-58.3496 6.83594-35.2051C6.83594-12.0605 25.6836 6.78711 48.8281 6.78711ZM48.8281-7.37305C33.4473-7.37305 20.9961-19.8242 20.9961-35.2051C20.9961-50.5859 33.4473-63.0371 48.8281-63.0371C64.209-63.0371 76.6602-50.5859 76.6602-35.2051C76.6602-19.8242 64.209-7.37305 48.8281-7.37305ZM48.8281-11.7188C61.6699-11.7188 72.3145-22.3633 72.3145-35.2051C72.3145-48.1934 61.9141-58.6914 48.8281-58.6914C35.9863-58.6914 25.3418-48.0469 25.3418-35.2051C25.3418-22.3633 36.0352-11.7188 48.8281-11.7188ZM48.8281-23.0957C42.334-23.0957 36.7188-28.7109 36.7188-35.2051C36.7188-41.748 42.2852-47.3145 48.8281-47.3145C55.3223-47.3145 60.9375-41.6992 60.9375-35.2051C60.9375-28.6621 55.3711-23.0957 48.8281-23.0957ZM48.8281-27.4414C53.0273-27.4414 56.5918-31.0059 56.5918-35.2051C56.5918-39.3555 52.9785-42.9688 48.8281-42.9688C44.6289-42.9688 41.0645-39.4043 41.0645-35.2051C41.0645-31.0547 44.6777-27.4414 48.8281-27.4414Z"/>
  </g>
  <g id="Heavy-S" transform="matrix(1 0 0 1 2588.47 696)">
   <path d="M48.2422 6.15234C70.9961 6.15234 89.5996-12.4512 89.5996-35.2051C89.5996-57.959 70.9961-76.6113 48.1934-76.6113C25.4395-76.6113 6.83594-57.959 6.83594-35.2051C6.83594-12.4512 25.4395 6.15234 48.2422 6.15234ZM48.2422-6.39648C32.2754-6.39648 19.4336-19.2871 19.4336-35.2051C19.4336-51.1719 32.2754-64.0137 48.1934-64.0137C64.1602-64.0137 77.002-51.1719 77.0508-35.2051C77.0508-19.2871 64.1602-6.39648 48.2422-6.39648ZM48.2422-11.5234C61.1816-11.5234 71.875-22.2656 71.875-35.2051C71.875-48.291 61.3281-58.8867 48.2422-58.8867C35.2539-58.8867 24.5605-48.1445 24.5605-35.2051C24.5605-22.2656 35.3027-11.5234 48.2422-11.5234ZM48.2422-21.9238C41.0645-21.9238 34.9121-28.0273 34.9121-35.2051C34.9121-42.4316 41.0156-48.5352 48.2422-48.5352C55.3711-48.5352 61.5234-42.3828 61.5234-35.2051C61.5234-28.0273 55.4199-21.9238 48.2422-21.9238ZM48.2422-27.002C52.6855-27.002 56.4453-30.7617 56.4453-35.2051C56.4453-39.6484 52.6367-43.4082 48.2422-43.4082C43.75-43.4082 40.0391-39.6973 40.0391-35.2051C40.0391-30.8105 43.7988-27.002 48.2422-27.002Z"/>
  </g>
  <g id="Bold-S" transform="matrix(1 0 0 1 2292.44 696)">
   <path d="M47.5586 5.46875C69.873 5.46875 88.2324-12.8906 88.2324-35.2539C88.2324-57.5684 69.873-75.9277 47.5098-75.9277C25.1953-75.9277 6.83594-57.5684 6.83594-35.2539C6.83594-12.8906 25.1953 5.46875 47.5586 5.46875ZM47.5586-5.32227C30.957-5.32227 17.6758-18.6523 17.6758-35.2539C17.6758-51.8066 30.957-65.1367 47.5098-65.1367C64.1113-65.1367 77.4414-51.8066 77.4414-35.2539C77.4414-18.6523 64.1113-5.32227 47.5586-5.32227ZM47.5586-11.377C60.5957-11.377 71.4355-22.2168 71.4355-35.2051C71.4355-48.3398 60.6934-59.1309 47.5586-59.1309C34.4727-59.1309 23.6816-48.291 23.6816-35.2051C23.6816-22.2168 34.5215-11.377 47.5586-11.377ZM47.5586-20.5566C39.6484-20.5566 32.8613-27.2949 32.8613-35.2051C32.8613-43.2129 39.5996-49.9023 47.5586-49.9023C55.4688-49.9023 62.207-43.1641 62.207-35.2051C62.207-27.2461 55.5176-20.5566 47.5586-20.5566ZM47.5586-26.5625C52.2949-26.5625 56.25-30.4688 56.25-35.2539C56.25-39.9414 52.2949-43.8965 47.5586-43.8965C42.8223-43.8965 38.8672-39.9902 38.8672-35.2539C38.8672-30.5176 42.8223-26.5625 47.5586-26.5625Z"/>
  </g>
  <g id="Semibold-S" transform="matrix(1 0 0 1 1996.2 696)">
   <path d="M47.0703 4.98047C69.0918 4.98047 87.3047-13.1836 87.3047-35.2539C87.3047-57.2754 69.0918-75.4883 47.0215-75.4883C25-75.4883 6.83594-57.2754 6.83594-35.2539C6.83594-13.1836 25.0488 4.98047 47.0703 4.98047ZM47.0703-4.58984C30.0781-4.58984 16.4551-18.2129 16.4551-35.2539C16.4551-52.2461 30.0293-65.8691 47.0215-65.8691C64.0625-65.8691 77.6855-52.2461 77.7344-35.2539C77.7344-18.2129 64.0625-4.58984 47.0703-4.58984ZM47.0703-11.2305C60.2051-11.2305 71.0938-22.1191 71.0938-35.2539C71.0938-48.4375 60.2539-59.2773 47.0703-59.2773C33.9355-59.2773 23.0469-48.3887 23.0469-35.2539C23.0469-22.1191 33.9844-11.2305 47.0703-11.2305ZM47.0703-19.6289C38.623-19.6289 31.4941-26.8066 31.4941-35.2539C31.4941-43.75 38.5742-50.8789 47.0703-50.8789C55.5176-50.8789 62.6953-43.7012 62.6953-35.2539C62.6953-26.7578 55.5664-19.6289 47.0703-19.6289ZM47.1191-26.2207C52.0508-26.2207 56.1523-30.2734 56.1523-35.2539C56.1523-40.1855 52.002-44.2871 47.1191-44.2871C42.1387-44.2871 38.0371-40.1855 38.0371-35.2539C38.0371-30.2734 42.1387-26.2207 47.1191-26.2207Z"/>
  </g>
  <g id="Medium-S" transform="matrix(1 0 0 1 1699.83 696)">
   <path d="M46.7285 4.63867C68.5547 4.63867 86.6211-13.4277 86.6211-35.2539C86.6211-57.0801 68.5059-75.1465 46.6797-75.1465C24.8535-75.1465 6.83594-57.0801 6.83594-35.2539C6.83594-13.4277 24.9023 4.63867 46.7285 4.63867ZM46.7285-4.00391C29.3945-4.00391 15.5273-17.9199 15.5273-35.2539C15.5273-52.5879 29.3457-66.4551 46.6797-66.4551C64.0137-66.4551 77.8809-52.5879 77.9297-35.2539C77.9785-17.9199 64.0625-4.00391 46.7285-4.00391ZM46.7285-11.1328C59.9121-11.1328 70.8496-22.0703 70.8496-35.2539C70.8496-48.4863 59.9121-59.4238 46.7285-59.4238C33.5449-59.4238 22.6074-48.4375 22.6074-35.2539C22.6074-22.0703 33.5938-11.1328 46.7285-11.1328ZM46.7285-18.9453C37.8906-18.9453 30.4199-26.416 30.4199-35.2539C30.4199-44.1406 37.8418-51.5625 46.7285-51.5625C55.5664-51.5625 63.0371-44.0918 63.0371-35.2539C63.0371-26.3672 55.5664-18.9453 46.7285-18.9453ZM46.7773-25.9766C51.8555-25.9766 56.0547-30.127 56.0547-35.3027C56.0547-40.332 51.8066-44.5312 46.7773-44.5312C41.6504-44.5312 37.4512-40.3809 37.4512-35.3027C37.4512-30.127 41.6504-25.9766 46.7773-25.9766Z"/>
  </g>
  <g id="Regular-S" transform="matrix(1 0 0 1 1403.58 696)">
   <path d="M46.2402 4.15039C67.7734 4.15039 85.6934-13.7207 85.6934-35.2539C85.6934-56.7871 67.7246-74.6582 46.1914-74.6582C24.707-74.6582 6.83594-56.7871 6.83594-35.2539C6.83594-13.7207 24.7559 4.15039 46.2402 4.15039ZM46.2402-3.27148C28.5156-3.27148 14.3555-17.4805 14.3555-35.2539C14.3555-53.0273 28.4668-67.2363 46.1914-67.2363C63.9648-67.2363 78.1738-53.0273 78.2227-35.2539C78.2715-17.4805 64.0137-3.27148 46.2402-3.27148ZM46.2402-10.9863C59.5215-10.9863 70.5078-22.0215 70.5078-35.2539C70.5078-48.5352 59.4727-59.5703 46.2402-59.5703C32.959-59.5703 21.9727-48.5352 21.9727-35.2539C21.9727-22.0215 33.0078-10.9863 46.2402-10.9863ZM46.2402-18.0176C36.9141-18.0176 29.0527-25.9277 29.0527-35.2539C29.0527-44.6777 36.8652-52.5391 46.2402-52.5391C55.6152-52.5391 63.4766-44.6289 63.4766-35.2539C63.4766-25.8789 55.6152-18.0176 46.2402-18.0176ZM46.2891-25.6348C51.5625-25.6348 55.9082-29.9316 55.9082-35.3027C55.9082-40.5762 51.5625-44.873 46.2891-44.873C40.9668-44.873 36.6211-40.5762 36.6211-35.3027C36.6211-29.9316 40.9668-25.6348 46.2891-25.6348Z"/>
  </g>
  <g id="Light-S" transform="matrix(1 0 0 1 1107.6 696)">
   <path d="M45.5078 3.41797C66.6992 3.41797 84.2285-14.0625 84.2285-35.2539C84.2285-56.4453 66.6504-73.9258 45.5078-73.9258C24.3164-73.9258 6.83594-56.4453 6.83594-35.2539C6.83594-14.0625 24.3652 3.41797 45.5078 3.41797ZM45.5078-2.29492C27.2461-2.29492 12.5977-16.9922 12.5977-35.2539C12.5977-53.5156 27.1973-68.2129 45.5078-68.2129C63.7695-68.2129 78.4668-53.5156 78.5156-35.2539C78.5156-16.9922 63.8184-2.29492 45.5078-2.29492ZM45.5078-10.9863C58.7891-10.9863 69.7754-22.0215 69.7754-35.2539C69.7754-48.4863 58.7402-59.5215 45.5078-59.5215C32.2754-59.5215 21.2891-48.4863 21.2891-35.2539C21.2891-22.0215 32.3242-10.9863 45.5078-10.9863ZM45.5078-16.4062C35.3027-16.4062 26.709-25 26.709-35.2539C26.709-45.5078 35.2539-54.1016 45.5078-54.1016C55.7617-54.1016 64.3555-45.5078 64.3555-35.2539C64.3555-25 55.7617-16.4062 45.5078-16.4062ZM45.5566-25.0977C51.123-25.0977 55.7129-29.6387 55.7129-35.2539C55.7129-40.8203 51.123-45.4102 45.5566-45.4102C39.9414-45.4102 35.3516-40.8203 35.3516-35.2539C35.3516-29.6387 39.9902-25.0977 45.5566-25.0977Z"/>
  </g>
  <g id="Thin-S" transform="matrix(1 0 0 1 811.867 696)">
   <path d="M44.5801 2.49023C65.2832 2.49023 82.2754-14.5508 82.2754-35.2539C82.2754-55.957 65.2344-72.998 44.5312-72.998C23.8281-72.998 6.83594-55.957 6.83594-35.2539C6.83594-14.5508 23.877 2.49023 44.5801 2.49023ZM44.5801-0.927734C25.5859-0.927734 10.2539-16.3086 10.2539-35.2539C10.2539-54.1992 25.5859-69.5801 44.5312-69.5801C63.5254-69.5801 78.8574-54.1992 78.8574-35.2539C78.8574-16.3086 63.5254-0.927734 44.5801-0.927734ZM44.5801-10.9863C57.8125-10.9863 68.7988-22.0215 68.7988-35.2051C68.7988-48.4863 57.7637-59.5215 44.5801-59.5215C31.2988-59.5215 20.3125-48.4863 20.3125-35.2051C20.3125-22.0215 31.3477-10.9863 44.5801-10.9863ZM44.5801-14.3066C33.2031-14.3066 23.6328-23.8281 23.6328-35.2051C23.6328-46.6309 33.1543-56.2012 44.5801-56.2012C55.9082-56.2012 65.4785-46.6309 65.4785-35.2051C65.4785-23.8281 55.957-14.3066 44.5801-14.3066ZM44.5801-24.3652C50.4883-24.3652 55.4688-29.2969 55.4688-35.2539C55.4688-41.1621 50.4883-46.0938 44.5801-46.0938C38.623-46.0938 33.6914-41.1621 33.6914-35.2539C33.6914-29.2969 38.623-24.3652 44.5801-24.3652Z"/>
  </g>
  <g id="Ultralight-S" transform="matrix(1 0 0 1 515.644 696)">
   <path d="M44.043 1.95312C64.502 1.95312 81.2988-14.7949 81.2988-35.2539C81.2988-55.7129 64.502-72.4609 44.043-72.4609C23.584-72.4609 6.83594-55.7129 6.83594-35.2539C6.83594-14.7949 23.584 1.95312 44.043 1.95312ZM44.043-0.244141C24.7559-0.244141 9.08203-15.9668 9.08203-35.2539C9.08203-54.541 24.7559-70.2637 44.043-70.2637C63.3789-70.2637 79.0527-54.541 79.0527-35.2539C79.0527-15.9668 63.3789-0.244141 44.043-0.244141ZM44.043-10.9863C57.2754-10.9863 68.2617-22.0215 68.2617-35.2051C68.2617-48.4375 57.2266-59.4727 44.043-59.4727C30.8105-59.4727 19.8242-48.4375 19.8242-35.2051C19.8242-22.0215 30.8594-10.9863 44.043-10.9863ZM44.043-13.1836C32.0801-13.1836 22.0215-23.2422 22.0215-35.2051C22.0215-47.2168 32.0312-57.2754 44.043-57.2754C56.0547-57.2754 66.0645-47.2168 66.0645-35.2051C66.0645-23.2422 56.0547-13.1836 44.043-13.1836ZM44.043-24.0234C50.1465-24.0234 55.3223-29.1016 55.3223-35.2051C55.3223-41.3574 50.1465-46.4355 44.043-46.4355C37.8906-46.4355 32.8125-41.3574 32.8125-35.2051C32.8125-29.1016 37.9395-24.0234 44.043-24.0234Z"/>
  </g>
 </g>
</svg>
