<?xml version="1.0" encoding="UTF-8"?>
<!--Generator: Apple Native CoreSVG 149-->
<!DOCTYPE svg
PUBLIC "-//W3C//DTD SVG 1.1//EN"
       "http://www.w3.org/Graphics/SVG/1.1/DTD/svg11.dtd">
<svg version="1.1" xmlns="http://www.w3.org/2000/svg" xmlns:xlink="http://www.w3.org/1999/xlink" width="3300" height="2200">
 <!--glyph: "uni100284.medium", point size: 100.000000, font version: "Version 16.0d12e3", template writer version: "8"-->
 <g id="Notes">
  <rect height="2200" id="artboard" style="fill:white;opacity:1" width="3300" x="0" y="0"/>
  <line id="" style="fill:none;stroke:black;opacity:1;stroke-width:0.5;" x1="263" x2="3036" y1="292" y2="292"/>
  <text style="stroke:none;fill:black;font-family:-apple-system,&quot;SF Pro Display&quot;,&quot;SF Pro Text&quot;,Helvetica,sans-serif;font-weight:bold;" transform="matrix(1 0 0 1 263 322)">Weight/Scale Variations</text>
  <text style="stroke:none;fill:black;font-family:-apple-system,&quot;SF Pro Display&quot;,&quot;SF Pro Text&quot;,Helvetica,sans-serif;text-anchor:middle;" transform="matrix(1 0 0 1 559.711 322)">Ultralight</text>
  <text style="stroke:none;fill:black;font-family:-apple-system,&quot;SF Pro Display&quot;,&quot;SF Pro Text&quot;,Helvetica,sans-serif;text-anchor:middle;" transform="matrix(1 0 0 1 856.422 322)">Thin</text>
  <text style="stroke:none;fill:black;font-family:-apple-system,&quot;SF Pro Display&quot;,&quot;SF Pro Text&quot;,Helvetica,sans-serif;text-anchor:middle;" transform="matrix(1 0 0 1 1153.13 322)">Light</text>
  <text style="stroke:none;fill:black;font-family:-apple-system,&quot;SF Pro Display&quot;,&quot;SF Pro Text&quot;,Helvetica,sans-serif;text-anchor:middle;" transform="matrix(1 0 0 1 1449.84 322)">Regular</text>
  <text style="stroke:none;fill:black;font-family:-apple-system,&quot;SF Pro Display&quot;,&quot;SF Pro Text&quot;,Helvetica,sans-serif;text-anchor:middle;" transform="matrix(1 0 0 1 1746.56 322)">Medium</text>
  <text style="stroke:none;fill:black;font-family:-apple-system,&quot;SF Pro Display&quot;,&quot;SF Pro Text&quot;,Helvetica,sans-serif;text-anchor:middle;" transform="matrix(1 0 0 1 2043.27 322)">Semibold</text>
  <text style="stroke:none;fill:black;font-family:-apple-system,&quot;SF Pro Display&quot;,&quot;SF Pro Text&quot;,Helvetica,sans-serif;text-anchor:middle;" transform="matrix(1 0 0 1 2339.98 322)">Bold</text>
  <text style="stroke:none;fill:black;font-family:-apple-system,&quot;SF Pro Display&quot;,&quot;SF Pro Text&quot;,Helvetica,sans-serif;text-anchor:middle;" transform="matrix(1 0 0 1 2636.69 322)">Heavy</text>
  <text style="stroke:none;fill:black;font-family:-apple-system,&quot;SF Pro Display&quot;,&quot;SF Pro Text&quot;,Helvetica,sans-serif;text-anchor:middle;" transform="matrix(1 0 0 1 2933.4 322)">Black</text>
  <line id="" style="fill:none;stroke:black;opacity:1;stroke-width:0.5;" x1="263" x2="3036" y1="1903" y2="1903"/>
  <g id="" transform="matrix(1 0 0 1 263 1933)">
   <path d="M9.24805 0.830078C13.5547 0.830078 17.1387-2.74414 17.1387-7.05078C17.1387-11.3574 13.5449-14.9316 9.23828-14.9316C4.94141-14.9316 1.36719-11.3574 1.36719-7.05078C1.36719-2.74414 4.95117 0.830078 9.24805 0.830078ZM9.24805-0.654297C5.70312-0.654297 2.87109-3.49609 2.87109-7.05078C2.87109-10.6055 5.69336-13.4473 9.23828-13.4473C12.793-13.4473 15.6348-10.6055 15.6445-7.05078C15.6543-3.49609 12.8027-0.654297 9.24805-0.654297ZM9.22852-3.62305C9.69727-3.62305 9.9707-3.93555 9.9707-4.45312L9.9707-6.31836L12.002-6.31836C12.5-6.31836 12.832-6.57227 12.832-7.04102C12.832-7.51953 12.5195-7.7832 12.002-7.7832L9.9707-7.7832L9.9707-9.81445C9.9707-10.332 9.69727-10.6543 9.22852-10.6543C8.75977-10.6543 8.50586-10.3125 8.50586-9.81445L8.50586-7.7832L6.49414-7.7832C5.97656-7.7832 5.64453-7.51953 5.64453-7.04102C5.64453-6.57227 5.99609-6.31836 6.49414-6.31836L8.50586-6.31836L8.50586-4.45312C8.50586-3.95508 8.75977-3.62305 9.22852-3.62305Z"/>
  </g>
  <g id="" transform="matrix(1 0 0 1 281.506 1933)">
   <path d="M11.709 2.91016C17.1582 2.91016 21.6699-1.61133 21.6699-7.05078C21.6699-12.5 17.1484-17.0117 11.6992-17.0117C6.25977-17.0117 1.74805-12.5 1.74805-7.05078C1.74805-1.61133 6.26953 2.91016 11.709 2.91016ZM11.709 1.25C7.09961 1.25 3.41797-2.44141 3.41797-7.05078C3.41797-11.6602 7.08984-15.3516 11.6992-15.3516C16.3086-15.3516 20-11.6602 20.0098-7.05078C20.0195-2.44141 16.3184 1.25 11.709 1.25ZM11.6797-2.66602C12.207-2.66602 12.5098-3.01758 12.5098-3.59375L12.5098-6.23047L15.3223-6.23047C15.8691-6.23047 16.25-6.51367 16.25-7.03125C16.25-7.55859 15.8887-7.86133 15.3223-7.86133L12.5098-7.86133L12.5098-10.6836C12.5098-11.25 12.207-11.6113 11.6797-11.6113C11.1621-11.6113 10.8789-11.2305 10.8789-10.6836L10.8789-7.86133L8.07617-7.86133C7.50977-7.86133 7.13867-7.55859 7.13867-7.03125C7.13867-6.51367 7.5293-6.23047 8.07617-6.23047L10.8789-6.23047L10.8789-3.59375C10.8789-3.03711 11.1621-2.66602 11.6797-2.66602Z"/>
  </g>
  <g id="" transform="matrix(1 0 0 1 304.924 1933)">
   <path d="M14.9707 5.66406C21.9336 5.66406 27.6953-0.0976562 27.6953-7.05078C27.6953-14.0137 21.9238-19.7754 14.9609-19.7754C8.00781-19.7754 2.25586-14.0137 2.25586-7.05078C2.25586-0.0976562 8.01758 5.66406 14.9707 5.66406ZM14.9707 3.84766C8.93555 3.84766 4.08203-1.01562 4.08203-7.05078C4.08203-13.0957 8.92578-17.9492 14.9609-17.9492C21.0059-17.9492 25.8594-13.0957 25.8691-7.05078C25.8789-1.01562 21.0156 3.84766 14.9707 3.84766ZM14.9414-1.38672C15.5176-1.38672 15.8594-1.77734 15.8594-2.38281L15.8594-6.13281L19.7754-6.13281C20.3711-6.13281 20.7812-6.46484 20.7812-7.02148C20.7812-7.59766 20.3906-7.93945 19.7754-7.93945L15.8594-7.93945L15.8594-11.8652C15.8594-12.4805 15.5176-12.8711 14.9414-12.8711C14.375-12.8711 14.0527-12.4609 14.0527-11.8652L14.0527-7.93945L10.1465-7.93945C9.53125-7.93945 9.13086-7.59766 9.13086-7.02148C9.13086-6.46484 9.55078-6.13281 10.1465-6.13281L14.0527-6.13281L14.0527-2.38281C14.0527-1.79688 14.375-1.38672 14.9414-1.38672Z"/>
  </g>
  <text style="stroke:none;fill:black;font-family:-apple-system,&quot;SF Pro Display&quot;,&quot;SF Pro Text&quot;,Helvetica,sans-serif;font-weight:bold;" transform="matrix(1 0 0 1 263 1953)">Design Variations</text>
  <text style="stroke:none;fill:black;font-family:-apple-system,&quot;SF Pro Display&quot;,&quot;SF Pro Text&quot;,Helvetica,sans-serif;" transform="matrix(1 0 0 1 263 1971)">Symbols are supported in up to nine weights and three scales.</text>
  <text style="stroke:none;fill:black;font-family:-apple-system,&quot;SF Pro Display&quot;,&quot;SF Pro Text&quot;,Helvetica,sans-serif;" transform="matrix(1 0 0 1 263 1989)">For optimal layout with text and other symbols, vertically align</text>
  <text style="stroke:none;fill:black;font-family:-apple-system,&quot;SF Pro Display&quot;,&quot;SF Pro Text&quot;,Helvetica,sans-serif;" transform="matrix(1 0 0 1 263 2007)">symbols with the adjacent text.</text>
  <line id="" style="fill:none;stroke:#00AEEF;stroke-width:0.5;opacity:1.0;" x1="776" x2="776" y1="1919" y2="1933"/>
  <g id="" transform="matrix(1 0 0 1 776 1933)">
   <path d="M3.31055 0.126953C3.82812 0.126953 4.08203-0.0683594 4.26758-0.605469L5.52734-4.0625L11.2891-4.0625L12.5488-0.605469C12.7344-0.0683594 12.9883 0.126953 13.4961 0.126953C14.0137 0.126953 14.3457-0.185547 14.3457-0.673828C14.3457-0.839844 14.3164-0.986328 14.2383-1.20117L9.6582-13.3887C9.43359-13.9941 9.0332-14.2871 8.4082-14.2871C7.80273-14.2871 7.39258-13.9941 7.17773-13.3984L2.59766-1.19141C2.51953-0.976562 2.49023-0.830078 2.49023-0.664062C2.49023-0.175781 2.80273 0.126953 3.31055 0.126953ZM6.00586-5.53711L8.37891-12.1094L8.42773-12.1094L10.8008-5.53711Z"/>
  </g>
  <line id="" style="fill:none;stroke:#00AEEF;stroke-width:0.5;opacity:1.0;" x1="792.836" x2="792.836" y1="1919" y2="1933"/>
  <text style="stroke:none;fill:black;font-family:-apple-system,&quot;SF Pro Display&quot;,&quot;SF Pro Text&quot;,Helvetica,sans-serif;font-weight:bold;" transform="matrix(1 0 0 1 776 1953)">Margins</text>
  <text style="stroke:none;fill:black;font-family:-apple-system,&quot;SF Pro Display&quot;,&quot;SF Pro Text&quot;,Helvetica,sans-serif;" transform="matrix(1 0 0 1 776 1971)">Leading and trailing margins on the left and right side of each symbol</text>
  <text style="stroke:none;fill:black;font-family:-apple-system,&quot;SF Pro Display&quot;,&quot;SF Pro Text&quot;,Helvetica,sans-serif;" transform="matrix(1 0 0 1 776 1989)">can be adjusted by modifying the x-location of the margin guidelines.</text>
  <text style="stroke:none;fill:black;font-family:-apple-system,&quot;SF Pro Display&quot;,&quot;SF Pro Text&quot;,Helvetica,sans-serif;" transform="matrix(1 0 0 1 776 2007)">Modifications are automatically applied proportionally to all</text>
  <text style="stroke:none;fill:black;font-family:-apple-system,&quot;SF Pro Display&quot;,&quot;SF Pro Text&quot;,Helvetica,sans-serif;" transform="matrix(1 0 0 1 776 2025)">scales and weights.</text>
  <g id="" transform="matrix(1 0 0 1 1289 1933)">
   <path d="M2.8418 1.86523L4.54102 3.57422C5.40039 4.44336 6.38672 4.38477 7.31445 3.35938L17.4902-7.85156C17.7539-7.76367 18.0273-7.7832 18.3398-7.8418L19.4043-8.03711L20.0684-7.36328L20.0293-6.80664C19.9902-6.30859 20.1172-5.92773 20.6055-5.44922L21.3672-4.70703C21.8457-4.22852 22.4609-4.19922 22.9297-4.66797L25.8398-7.58789C26.3086-8.05664 26.2891-8.65234 25.8105-9.13086L25.0391-9.89258C24.5605-10.3711 24.1895-10.5273 23.7109-10.4883L23.1348-10.4395L22.4902-11.0742L22.7344-12.1973C22.8613-12.7637 22.7051-13.2031 22.1191-13.7891L19.9219-15.9766C16.582-19.2969 12.1484-19.2188 9.25781-16.3281C8.83789-15.918 8.80859-15.3418 9.04297-14.9512C9.27734-14.5898 9.73633-14.3555 10.3809-14.5215C11.8457-14.8633 13.3691-14.9219 14.7949-13.9844L14.209-12.5293C14.0137-12.0508 13.9844-11.6504 14.1113-11.2891L3.04688-0.898438C2.06055 0.0195312 1.98242 0.996094 2.8418 1.86523ZM10.752-15.957C13.1836-17.7344 16.4746-17.4316 18.7012-15.2051L21.1328-12.793C21.3672-12.5586 21.4062-12.373 21.3379-12.0312L21.0156-10.5469L22.5195-9.0625L23.5059-9.12109C23.7598-9.13086 23.8379-9.11133 24.0332-8.91602L24.6094-8.33984L22.168-5.89844L21.5918-6.47461C21.3965-6.66992 21.3672-6.74805 21.377-7.01172L21.4453-7.98828L19.9512-9.47266L18.4277-9.21875C18.1055-9.15039 17.959-9.17969 17.7148-9.41406L15.7129-11.416C15.459-11.6504 15.4297-11.8164 15.5859-12.1875L16.4648-14.2773C14.9023-15.7324 12.8711-16.3574 10.8398-15.7617C10.6836-15.7227 10.625-15.8496 10.752-15.957ZM5.27344 2.30469L4.10156 1.14258C3.63281 0.683594 3.74023 0.341797 4.14062-0.0195312L14.9512-10.1953L16.416-8.71094L6.42578 2.27539C6.07422 2.67578 5.74219 2.77344 5.27344 2.30469Z"/>
  </g>
  <text style="stroke:none;fill:black;font-family:-apple-system,&quot;SF Pro Display&quot;,&quot;SF Pro Text&quot;,Helvetica,sans-serif;font-weight:bold;" transform="matrix(1 0 0 1 1289 1953)">Exporting</text>
  <text style="stroke:none;fill:black;font-family:-apple-system,&quot;SF Pro Display&quot;,&quot;SF Pro Text&quot;,Helvetica,sans-serif;" transform="matrix(1 0 0 1 1289 1971)">Symbols should be outlined when exporting to ensure the</text>
  <text style="stroke:none;fill:black;font-family:-apple-system,&quot;SF Pro Display&quot;,&quot;SF Pro Text&quot;,Helvetica,sans-serif;" transform="matrix(1 0 0 1 1289 1989)">design is preserved when submitting to Xcode.</text>
  <text id="template-version" style="stroke:none;fill:black;font-family:-apple-system,&quot;SF Pro Display&quot;,&quot;SF Pro Text&quot;,Helvetica,sans-serif;text-anchor:end;" transform="matrix(1 0 0 1 3036 1933)">Template v.2.0</text>
  <text style="stroke:none;fill:black;font-family:-apple-system,&quot;SF Pro Display&quot;,&quot;SF Pro Text&quot;,Helvetica,sans-serif;text-anchor:end;" transform="matrix(1 0 0 1 3036 1951)">Requires Xcode 12 or greater</text>
  <text style="stroke:none;fill:black;font-family:-apple-system,&quot;SF Pro Display&quot;,&quot;SF Pro Text&quot;,Helvetica,sans-serif;text-anchor:end;" transform="matrix(1 0 0 1 3036 1969)">Generated from play.fill</text>
  <text style="stroke:none;fill:black;font-family:-apple-system,&quot;SF Pro Display&quot;,&quot;SF Pro Text&quot;,Helvetica,sans-serif;text-anchor:end;" transform="matrix(1 0 0 1 3036 1987)">Typeset at 100 points</text>
  <text style="stroke:none;fill:black;font-family:-apple-system,&quot;SF Pro Display&quot;,&quot;SF Pro Text&quot;,Helvetica,sans-serif;" transform="matrix(1 0 0 1 263 726)">Small</text>
  <text style="stroke:none;fill:black;font-family:-apple-system,&quot;SF Pro Display&quot;,&quot;SF Pro Text&quot;,Helvetica,sans-serif;" transform="matrix(1 0 0 1 263 1156)">Medium</text>
  <text style="stroke:none;fill:black;font-family:-apple-system,&quot;SF Pro Display&quot;,&quot;SF Pro Text&quot;,Helvetica,sans-serif;" transform="matrix(1 0 0 1 263 1586)">Large</text>
 </g>
 <g id="Guides">
  <g id="H-reference" style="fill:#27AAE1;stroke:none;" transform="matrix(1 0 0 1 339 696)">
   <path d="M0.976562 0L3.66211 0L12.9883-24.4629L45.752-24.4629L55.127 0L57.7637 0L30.6152-70.459L28.125-70.459ZM29.3457-67.1387L29.4434-67.1387L44.873-26.709L13.8672-26.709Z"/>
  </g>
  <line id="Baseline-S" style="fill:none;stroke:#27AAE1;opacity:1;stroke-width:0.5;" x1="263" x2="3036" y1="696" y2="696"/>
  <line id="Capline-S" style="fill:none;stroke:#27AAE1;opacity:1;stroke-width:0.5;" x1="263" x2="3036" y1="625.541" y2="625.541"/>
  <g id="H-reference" style="fill:#27AAE1;stroke:none;" transform="matrix(1 0 0 1 339 1126)">
   <path d="M0.976562 0L3.66211 0L12.9883-24.4629L45.752-24.4629L55.127 0L57.7637 0L30.6152-70.459L28.125-70.459ZM29.3457-67.1387L29.4434-67.1387L44.873-26.709L13.8672-26.709Z"/>
  </g>
  <line id="Baseline-M" style="fill:none;stroke:#27AAE1;opacity:1;stroke-width:0.5;" x1="263" x2="3036" y1="1126" y2="1126"/>
  <line id="Capline-M" style="fill:none;stroke:#27AAE1;opacity:1;stroke-width:0.5;" x1="263" x2="3036" y1="1055.54" y2="1055.54"/>
  <g id="H-reference" style="fill:#27AAE1;stroke:none;" transform="matrix(1 0 0 1 339 1556)">
   <path d="M0.976562 0L3.66211 0L12.9883-24.4629L45.752-24.4629L55.127 0L57.7637 0L30.6152-70.459L28.125-70.459ZM29.3457-67.1387L29.4434-67.1387L44.873-26.709L13.8672-26.709Z"/>
  </g>
  <line id="Baseline-L" style="fill:none;stroke:#27AAE1;opacity:1;stroke-width:0.5;" x1="263" x2="3036" y1="1556" y2="1556"/>
  <line id="Capline-L" style="fill:none;stroke:#27AAE1;opacity:1;stroke-width:0.5;" x1="263" x2="3036" y1="1485.54" y2="1485.54"/>
  <line id="left-margin" style="fill:none;stroke:#00AEEF;stroke-width:0.5;opacity:1.0;" x1="1406.07" x2="1406.07" y1="1030.79" y2="1150.12"/>
  <line id="right-margin" style="fill:none;stroke:#00AEEF;stroke-width:0.5;opacity:1.0;" x1="1493.62" x2="1493.62" y1="1030.79" y2="1150.12"/>
 </g>
 <g id="Symbols">
  <g id="Black-L" transform="matrix(1 0 0 1 2869.8 1556)">
   <path d="M28.8086 25.8301C32.0312 25.8301 35.0098 24.8535 39.1113 22.5098L115.723-21.9238C122.021-25.5371 125.586-29.3457 125.586-35.2051C125.586-41.0645 122.021-44.8242 115.723-48.4863L39.1113-92.8711C35.0098-95.2148 32.0312-96.1914 28.8086-96.1914C22.0215-96.1914 16.0645-91.0156 16.0645-82.1289L16.0645 11.7676C16.0645 20.6055 22.0215 25.8301 28.8086 25.8301Z"/>
  </g>
  <g id="Heavy-L" transform="matrix(1 0 0 1 2574.9 1556)">
   <path d="M27.3926 23.9258C30.4199 23.9258 33.1543 23.0469 36.8164 20.8984L112.939-23.2422C118.848-26.6602 121.973-29.9805 121.973-35.2051C121.973-40.3809 118.848-43.7012 112.939-47.1191L36.8164-91.2598C33.1543-93.4082 30.4199-94.3359 27.3926-94.3359C21.2402-94.3359 16.0645-89.5996 16.0645-81.6406L16.0645 11.2793C16.0645 19.2383 21.2402 23.9258 27.3926 23.9258Z"/>
  </g>
  <g id="Bold-L" transform="matrix(1 0 0 1 2280.19 1556)">
   <path d="M25.8301 21.875C28.6133 21.875 31.0547 20.9473 34.2773 19.0918L109.863-24.7559C115.283-27.9297 117.92-30.7129 117.92-35.2051C117.92-39.6484 115.283-42.4316 109.863-45.6055L34.2773-89.502C31.0547-91.3574 28.6133-92.2363 25.8301-92.2363C20.3613-92.2363 16.0645-88.0371 16.0645-81.1035L16.0645 10.7422C16.0645 17.6758 20.3613 21.875 25.8301 21.875Z"/>
  </g>
  <g id="Semibold-L" transform="matrix(1 0 0 1 1984.87 1556)">
   <path d="M24.8047 20.4102C27.3438 20.4102 29.5898 19.5312 32.4707 17.8711L107.715-25.7812C112.842-28.8086 115.137-31.25 115.137-35.2051C115.137-39.1113 112.842-41.6016 107.715-44.5801L32.4707-88.2324C29.5898-89.9414 27.3438-90.7715 24.8047-90.7715C19.7754-90.7715 16.0645-86.9629 16.0645-80.7617L16.0645 10.3516C16.0645 16.6016 19.7754 20.4102 24.8047 20.4102Z"/>
  </g>
  <g id="Medium-L" transform="matrix(1 0 0 1 1689.21 1556)">
   <path d="M23.9746 19.3359C26.416 19.3359 28.4668 18.457 31.1523 16.9434L106.104-26.6113C111.035-29.4434 113.037-31.6406 113.037-35.2051C113.037-38.7207 111.035-40.918 106.104-43.7988L31.1523-87.3047C28.4668-88.8672 26.416-89.6973 23.9746-89.6973C19.3359-89.6973 16.0645-86.1328 16.0645-80.4688L16.0645 10.0586C16.0645 15.7715 19.3359 19.3359 23.9746 19.3359Z"/>
  </g>
  <g id="Regular-L" transform="matrix(1 0 0 1 1393.89 1556)">
   <path d="M22.9004 17.8711C25.1953 17.8711 27.0508 17.0898 29.3945 15.7227L103.955-27.6367C108.594-30.2734 110.303-32.1289 110.303-35.2051C110.303-38.2324 108.594-40.0879 103.955-42.7734L29.3945-86.084C27.0508-87.4512 25.1953-88.2812 22.9004-88.2812C18.7012-88.2812 16.0645-85.1074 16.0645-80.0781L16.0645 9.7168C16.0645 14.6973 18.7012 17.8711 22.9004 17.8711Z"/>
  </g>
  <g id="Light-L" transform="matrix(1 0 0 1 1097.88 1556)">
   <path d="M21.9727 17.5781C23.877 17.5781 25.3906 16.9434 27.4414 15.7227L103.564-28.7598C107.324-30.9082 108.838-32.5195 108.838-35.2051C108.838-37.8418 107.324-39.4531 103.564-41.6016L27.4414-86.084C25.3906-87.3047 23.877-87.9395 21.9727-87.9395C18.3594-87.9395 16.0645-85.2539 16.0645-80.9082L16.0645 10.5469C16.0645 14.8926 18.3594 17.5781 21.9727 17.5781Z"/>
  </g>
  <g id="Thin-L" transform="matrix(1 0 0 1 802.125 1556)">
   <path d="M20.7031 17.1387C22.1191 17.1387 23.1934 16.748 24.9023 15.7227L103.076-30.2734C105.615-31.7383 106.982-33.0566 106.982-35.2051C106.982-37.3535 105.615-38.623 103.076-40.0879L24.9023-86.084C23.1934-87.1094 22.1191-87.5 20.7031-87.5C17.9199-87.5 16.0645-85.498 16.0645-82.0312L16.0645 11.6211C16.0645 15.0879 17.9199 17.1387 20.7031 17.1387Z"/>
  </g>
  <g id="Ultralight-L" transform="matrix(1 0 0 1 505.903 1556)">
   <path d="M20.0195 16.8945C21.1914 16.8945 22.0703 16.6504 23.584 15.7227L102.832-31.0547C104.785-32.1777 106.006-33.3008 106.006-35.2051C106.006-37.0605 104.785-38.1836 102.832-39.3066L23.584-86.084C22.0703-87.0117 21.1914-87.2559 20.0195-87.2559C17.6758-87.2559 16.0645-85.5957 16.0645-82.5684L16.0645 12.207C16.0645 15.1855 17.6758 16.8945 20.0195 16.8945Z"/>
  </g>
  <g id="Black-M" transform="matrix(1 0 0 1 2882.06 1126)">
   <path d="M23.6816 14.4043C26.3184 14.4043 28.8086 13.7207 32.373 11.6699L93.2129-23.6816C98.1445-26.5625 101.416-29.9805 101.416-35.2051C101.416-40.4297 98.1445-43.8477 93.2129-46.6797L32.373-82.0801C28.8086-84.1309 26.3184-84.8145 23.6816-84.8145C17.9688-84.8145 12.4512-80.4199 12.4512-72.7051L12.4512 2.29492C12.4512 10.0098 17.9688 14.4043 23.6816 14.4043Z"/>
  </g>
  <g id="Heavy-M" transform="matrix(1 0 0 1 2587.13 1126)">
   <path d="M22.4121 12.4512C24.8535 12.4512 27.1973 11.7676 30.3711 9.91211L90.2832-24.8535C95.0195-27.6367 97.8516-30.6152 97.8516-35.2051C97.8516-39.7949 95.0195-42.7734 90.2832-45.5078L30.3711-80.3223C27.1973-82.1777 24.8535-82.8613 22.4121-82.8613C17.1875-82.8613 12.4512-78.8574 12.4512-71.9238L12.4512 1.5625C12.4512 8.44727 17.1875 12.4512 22.4121 12.4512Z"/>
  </g>
  <g id="Bold-M" transform="matrix(1 0 0 1 2292.42 1126)">
   <path d="M20.9961 10.2539C23.291 10.2539 25.3418 9.57031 28.125 7.95898L87.0117-26.1719C91.5039-28.8086 93.8477-31.2988 93.8477-35.2051C93.8477-39.1113 91.5039-41.6016 87.0117-44.1895L28.125-78.3691C25.3418-79.9805 23.291-80.6641 20.9961-80.6641C16.3086-80.6641 12.4512-77.0996 12.4512-71.0938L12.4512 0.683594C12.4512 6.68945 16.3086 10.2539 20.9961 10.2539Z"/>
  </g>
  <g id="Semibold-M" transform="matrix(1 0 0 1 1997.08 1126)">
   <path d="M20.0195 8.74023C22.2168 8.74023 24.1211 8.05664 26.6113 6.5918L84.7656-27.0996C89.1113-29.6387 91.1133-31.7871 91.1133-35.2051C91.1133-38.623 89.1113-40.7715 84.7656-43.3105L26.6113-77.002C24.1211-78.418 22.2168-79.1504 20.0195-79.1504C15.7227-79.1504 12.4512-75.8789 12.4512-70.5078L12.4512 0.146484C12.4512 5.46875 15.7227 8.74023 20.0195 8.74023Z"/>
  </g>
  <g id="Medium-M" transform="matrix(1 0 0 1 1701.41 1126)">
   <path d="M19.2871 7.61719C21.3379 7.61719 23.1445 6.88477 25.3906 5.56641L83.0566-27.7832C87.2559-30.2246 89.0137-32.1289 89.0137-35.2051C89.0137-38.2812 87.2559-40.1367 83.0566-42.627L25.3906-75.9766C23.1445-77.2949 21.3379-78.0273 19.2871-78.0273C15.2832-78.0273 12.4512-74.9512 12.4512-70.1172L12.4512-0.292969C12.4512 4.58984 15.2832 7.61719 19.2871 7.61719Z"/>
  </g>
  <g id="Regular-M" transform="matrix(1 0 0 1 1406.07 1126)">
   <path d="M18.3105 6.15234C20.2637 6.15234 21.9238 5.37109 23.877 4.24805L80.8105-28.6621C84.8633-31.0547 86.2793-32.6172 86.2793-35.2051C86.2793-37.793 84.8633-39.3555 80.8105-41.6992L23.877-74.6582C21.9238-75.7812 20.2637-76.5137 18.3105-76.5137C14.6973-76.5137 12.4512-73.7793 12.4512-69.5312L12.4512-0.878906C12.4512 3.36914 14.6973 6.15234 18.3105 6.15234Z"/>
  </g>
  <g id="Light-M" transform="matrix(1 0 0 1 1109.99 1126)">
   <path d="M17.4316 5.81055C19.0918 5.81055 20.4102 5.27344 22.168 4.24805L80.4688-29.6875C83.7402-31.5918 85.0098-32.959 85.0098-35.2051C85.0098-37.4512 83.7402-38.7695 80.4688-40.6738L22.168-74.6582C20.4102-75.6348 19.0918-76.2207 17.4316-76.2207C14.4043-76.2207 12.4512-73.9258 12.4512-70.2637L12.4512-0.146484C12.4512 3.51562 14.4043 5.81055 17.4316 5.81055Z"/>
  </g>
  <g id="Thin-M" transform="matrix(1 0 0 1 814.137 1126)">
   <path d="M16.3086 5.41992C17.5293 5.41992 18.457 5.07812 19.8242 4.24805L79.9805-31.0547C82.2266-32.373 83.3008-33.4473 83.3008-35.2051C83.3008-36.9629 82.2266-38.0371 79.9805-39.3066L19.8242-74.6582C18.457-75.4883 17.5293-75.8301 16.3086-75.8301C13.9648-75.8301 12.4512-74.1211 12.4512-71.2402L12.4512 0.878906C12.4512 3.71094 13.9648 5.41992 16.3086 5.41992Z"/>
  </g>
  <g id="Ultralight-M" transform="matrix(1 0 0 1 517.865 1126)">
   <path d="M15.7227 5.22461C16.6992 5.22461 17.4316 4.98047 18.6523 4.24805L79.7363-31.7871C81.4453-32.7148 82.4707-33.6426 82.4707-35.2051C82.4707-36.7188 81.4453-37.6465 79.7363-38.623L18.6523-74.6582C17.4316-75.3906 16.6992-75.6348 15.7227-75.6348C13.7695-75.6348 12.4512-74.2188 12.4512-71.7773L12.4512 1.36719C12.4512 3.80859 13.7695 5.22461 15.7227 5.22461Z"/>
  </g>
  <g id="Black-S" transform="matrix(1 0 0 1 2893.31 696)">
   <path d="M18.457 3.51562C20.5078 3.51562 22.4609 2.97852 25.2441 1.36719L72.8027-26.2695C76.6602-28.5156 79.1992-31.1523 79.1992-35.2051C79.1992-39.2578 76.6602-41.8945 72.8027-44.1406L25.2441-71.7773C22.4609-73.3887 20.5078-73.9258 18.457-73.9258C14.0137-73.9258 9.76562-70.5078 9.76562-64.502L9.76562-5.9082C9.76562 0.0976562 14.0137 3.51562 18.457 3.51562Z"/>
  </g>
  <g id="Heavy-S" transform="matrix(1 0 0 1 2597.89 696)">
   <path d="M17.5781 2.05078C19.5312 2.05078 21.3867 1.46484 23.877 0.0488281L70.6055-27.0508C74.4141-29.248 76.6113-31.5918 76.6113-35.2051C76.6113-38.8184 74.4141-41.1621 70.6055-43.3594L23.877-70.459C21.3867-71.875 19.5312-72.4609 17.5781-72.4609C13.4766-72.4609 9.76562-69.2871 9.76562-63.8672L9.76562-6.54297C9.76562-1.12305 13.4766 2.05078 17.5781 2.05078Z"/>
  </g>
  <g id="Bold-S" transform="matrix(1 0 0 1 2302.62 696)">
   <path d="M16.6016 0.439453C18.5059 0.439453 20.166-0.195312 22.4121-1.46484L68.1152-27.9297C71.875-30.0781 73.6816-32.0801 73.6816-35.2051C73.6816-38.3301 71.875-40.332 68.1152-42.4805L22.4121-68.9453C20.166-70.2148 18.5059-70.8496 16.6016-70.8496C12.8418-70.8496 9.76562-67.9199 9.76562-63.1348L9.76562-7.27539C9.76562-2.49023 12.8418 0.439453 16.6016 0.439453Z"/>
  </g>
  <g id="Semibold-S" transform="matrix(1 0 0 1 2006.91 696)">
   <path d="M15.918-0.732422C17.7734-0.732422 19.3359-1.31836 21.3867-2.49023L66.4551-28.5645C70.1172-30.6641 71.7285-32.4219 71.7285-35.2051C71.7285-37.9883 70.1172-39.7461 66.4551-41.8457L21.3867-67.9199C19.3359-69.0918 17.7734-69.6777 15.918-69.6777C12.4023-69.6777 9.76562-66.9922 9.76562-62.5977L9.76562-7.8125C9.76562-3.41797 12.4023-0.732422 15.918-0.732422Z"/>
  </g>
  <g id="Medium-S" transform="matrix(1 0 0 1 1710.96 696)">
   <path d="M15.4297-1.5625C17.1875-1.5625 18.7012-2.19727 20.5566-3.27148L65.1367-29.0039C68.7988-31.1035 70.166-32.666 70.166-35.2051C70.166-37.7441 68.7988-39.3066 65.1367-41.4062L20.5566-67.1387C18.7012-68.2129 17.1875-68.8477 15.4297-68.8477C12.1094-68.8477 9.76562-66.2598 9.76562-62.2559L9.76562-8.1543C9.76562-4.15039 12.1094-1.5625 15.4297-1.5625Z"/>
  </g>
  <g id="Regular-S" transform="matrix(1 0 0 1 1415.23 696)">
   <path d="M14.7461-2.68555C16.4551-2.68555 17.8711-3.32031 19.5312-4.29688L63.4766-29.5898C67.041-31.6895 68.2129-33.0078 68.2129-35.2051C68.2129-37.4023 67.041-38.7207 63.4766-40.8203L19.5312-66.1133C17.8711-67.0898 16.4551-67.7246 14.7461-67.7246C11.6699-67.7246 9.76562-65.332 9.76562-61.7188L9.76562-8.69141C9.76562-5.07812 11.6699-2.68555 14.7461-2.68555Z"/>
  </g>
  <g id="Light-S" transform="matrix(1 0 0 1 1119.1 696)">
   <path d="M14.0137-2.92969C15.4297-2.92969 16.5527-3.4668 18.0176-4.29688L63.1836-30.5176C66.0645-32.1777 67.0898-33.3008 67.0898-35.2051C67.0898-37.1094 66.0645-38.2324 63.1836-39.8926L18.0176-66.1133C16.5527-66.9434 15.4297-67.4805 14.0137-67.4805C11.377-67.4805 9.76562-65.4785 9.76562-62.4023L9.76562-8.00781C9.76562-4.93164 11.377-2.92969 14.0137-2.92969Z"/>
  </g>
  <g id="Thin-S" transform="matrix(1 0 0 1 823.121 696)">
   <path d="M12.9883-3.27148C14.0137-3.27148 14.8438-3.61328 15.9668-4.29688L62.7441-31.6895C64.6973-32.8125 65.5762-33.7402 65.5762-35.2051C65.5762-36.6699 64.6973-37.5977 62.7441-38.7207L15.9668-66.1133C14.8438-66.7969 14.0137-67.1387 12.9883-67.1387C11.0352-67.1387 9.76562-65.6738 9.76562-63.2812L9.76562-7.12891C9.76562-4.73633 11.0352-3.27148 12.9883-3.27148Z"/>
  </g>
  <g id="Ultralight-S" transform="matrix(1 0 0 1 526.801 696)">
   <path d="M12.4512-3.4668C13.2812-3.4668 13.916-3.71094 14.9414-4.29688L62.5488-32.3242C64.0137-33.1543 64.8438-33.9355 64.8438-35.2051C64.8438-36.4746 64.0137-37.2559 62.5488-38.0859L14.9414-66.1133C13.916-66.6992 13.2812-66.9434 12.4512-66.9434C10.8398-66.9434 9.76562-65.7715 9.76562-63.7207L9.76562-6.68945C9.76562-4.63867 10.8398-3.4668 12.4512-3.4668Z"/>
  </g>
 </g>
</svg>
